<svg width="164" height="50" viewBox="0 0 164 50" fill="none" xmlns="http://www.w3.org/2000/svg">
<path d="M155.33 0H8.66965C3.88154 0 0 4.11692 0 9.19541V40.8046C0 45.8831 3.88154 50 8.66965 50H155.33C160.118 50 164 45.8831 164 40.8046V9.19541C164 4.11692 160.118 0 155.33 0Z" fill="white"/>
<path d="M43.0016 25.5976C43.0016 23.1252 44.4006 20.9816 46.4462 19.9178C45.3073 18.0671 43.2689 16.8335 40.9431 16.8335H40.3302C39.6307 16.8335 38.9501 17.0296 38.3389 17.371C37.3353 17.9313 36.1801 18.2508 34.9508 18.2508C33.7215 18.2508 32.5659 17.9313 31.5628 17.371C30.9515 17.0296 30.2705 16.8335 29.5715 16.8335H29.5188C27.8329 16.8335 26.2982 17.4819 25.1469 18.5427C25.1469 18.5427 17.1491 24.8099 26.6537 37.4629C27.4384 38.6703 28.7949 39.4692 30.3382 39.4692H30.3797C30.8646 39.4692 31.334 39.32 31.7448 39.0616C32.7424 38.4338 33.9211 38.07 35.1851 38.07C36.4491 38.07 37.6279 38.4338 38.6254 39.0616C39.0362 39.32 39.5057 39.4692 39.9905 39.4692H40.0321C41.3654 39.4692 42.56 38.8728 43.3661 37.932H43.3666C43.3666 37.932 45.9957 35.349 47.2605 31.6313C44.7809 30.7567 43.0025 28.3866 43.0025 25.5981L43.0016 25.5976Z" fill="black"/>
<path d="M40.45 10.9008C40.45 10.5951 40.4273 10.2945 40.3875 10C36.9176 10.1681 34.1558 13.0452 34.1558 16.5703C34.1558 16.876 34.1785 17.1762 34.2183 17.4711C37.6882 17.303 40.45 14.4259 40.45 10.9008Z" fill="black"/>
<path d="M70.2019 37.8885H67.8222L66.5183 33.7761H61.9871L60.7453 37.8885H58.4281L62.9178 23.8879H65.6908L70.2024 37.8885H70.2019ZM66.1251 32.0505L64.9459 28.3947C64.8213 28.021 64.5874 27.1417 64.2426 25.7571H64.2007C64.0636 26.3527 63.8422 27.232 63.5385 28.3947L62.3803 32.0505H66.1247H66.1251Z" fill="black"/>
<path d="M81.7487 32.7142C81.7487 34.4311 81.2865 35.7882 80.3622 36.7845C79.5342 37.6716 78.5062 38.1145 77.2791 38.1145C75.9543 38.1145 75.0029 37.6367 74.4234 36.6817H74.3814V41.9999H72.1473V31.1142C72.1473 30.0349 72.119 28.9268 72.0646 27.7908H74.0298L74.1544 29.3908H74.1964C74.9417 28.1851 76.0725 27.5835 77.5896 27.5835C78.7761 27.5835 79.7664 28.0539 80.5583 28.9952C81.3529 29.9377 81.7487 31.177 81.7487 32.7142ZM79.4726 32.7963C79.4726 31.8138 79.2524 31.0037 78.8103 30.366C78.3272 29.7012 77.6787 29.3688 76.8653 29.3688C76.3141 29.3688 75.8133 29.5542 75.3657 29.9192C74.9173 30.2873 74.6239 30.768 74.4864 31.3636C74.4174 31.6413 74.3827 31.8684 74.3827 32.0473V33.7307C74.3827 34.4651 74.6072 35.0847 75.0556 35.5908C75.5041 36.0969 76.0871 36.3493 76.8036 36.3493C77.6453 36.3493 78.3002 36.0234 78.7688 35.3728C79.2382 34.7218 79.473 33.8631 79.473 32.7963H79.4726Z" fill="black"/>
<path d="M93.3134 32.7142C93.3134 34.4311 92.8512 35.7882 91.926 36.7845C91.0993 37.6716 90.0709 38.1145 88.8438 38.1145C87.519 38.1145 86.5676 37.6367 85.989 36.6817H85.947V41.9999H83.7128V31.1142C83.7128 30.0349 83.6846 28.9268 83.6302 27.7908H85.5953L85.72 29.3908H85.762C86.506 28.1851 87.6367 27.5835 89.1552 27.5835C90.3403 27.5835 91.3306 28.0539 92.1252 28.9952C92.9163 29.9377 93.3138 31.177 93.3138 32.7142H93.3134ZM91.0372 32.7963C91.0372 31.8138 90.8162 31.0037 90.3738 30.366C89.8906 29.7012 89.2438 29.3688 88.4296 29.3688C87.8775 29.3688 87.3776 29.5542 86.9287 29.9192C86.4803 30.2873 86.1877 30.768 86.0507 31.3636C85.9825 31.6413 85.947 31.8684 85.947 32.0473V33.7307C85.947 34.4651 86.1714 35.0847 86.6178 35.5908C87.0662 36.0956 87.6492 36.3493 88.3679 36.3493C89.2096 36.3493 89.8645 36.0234 90.3331 35.3728C90.8025 34.7218 91.0372 33.8631 91.0372 32.7963Z" fill="black"/>
<path d="M106.248 33.9606C106.248 35.1517 105.836 36.1205 105.009 36.8687C104.1 37.6861 102.836 38.0942 101.21 38.0942C99.7093 38.0942 98.5065 37.8039 97.5955 37.2221L98.1133 35.3525C99.0942 35.9481 100.171 36.2469 101.343 36.2469C102.185 36.2469 102.84 36.0556 103.31 35.6746C103.779 35.2936 104.012 34.7824 104.012 34.1451C104.012 33.5771 103.819 33.0985 103.433 32.7102C103.048 32.3219 102.406 31.9612 101.509 31.6275C99.0668 30.7133 97.8469 29.3739 97.8469 27.6131C97.8469 26.462 98.2744 25.5186 99.1306 24.7841C99.9838 24.0489 101.122 23.6816 102.545 23.6816C103.814 23.6816 104.868 23.9035 105.71 24.3464L105.151 26.1747C104.365 25.7456 103.476 25.531 102.482 25.531C101.696 25.531 101.082 25.7258 100.642 26.1128C100.27 26.459 100.083 26.8808 100.083 27.3804C100.083 27.9338 100.296 28.3914 100.724 28.7513C101.096 29.0837 101.772 29.4436 102.753 29.8318C103.952 30.3169 104.834 30.884 105.401 31.5342C105.966 32.1822 106.248 32.9936 106.248 33.9611V33.9606Z" fill="black"/>
<path d="M113.636 29.4798H111.173V34.3813C111.173 35.6279 111.607 36.2509 112.477 36.2509C112.876 36.2509 113.207 36.2161 113.469 36.1469L113.531 37.8501C113.09 38.0152 112.511 38.0982 111.793 38.0982C110.911 38.0982 110.221 37.8277 109.723 37.2881C109.228 36.7472 108.978 35.8403 108.978 34.5662V29.4773H107.511V27.7938H108.978V25.9453L111.172 25.2805V27.7938H113.635V29.4794L113.636 29.4798Z" fill="black"/>
<path d="M124.744 32.7542C124.744 34.306 124.302 35.5801 123.42 36.5764C122.494 37.6023 121.266 38.1136 119.735 38.1136C118.204 38.1136 117.085 37.6221 116.209 36.6396C115.333 35.6571 114.895 34.4165 114.895 32.9214C114.895 31.4263 115.345 30.0757 116.25 29.0794C117.152 28.0823 118.37 27.5835 119.901 27.5835C121.432 27.5835 122.564 28.075 123.46 29.0584C124.317 30.0125 124.745 31.2445 124.745 32.7542H124.744ZM122.426 32.8268C122.426 31.8959 122.228 31.0974 121.827 30.4313C121.358 29.6255 120.689 29.2235 119.821 29.2235C118.953 29.2235 118.241 29.6264 117.773 30.4313C117.371 31.0983 117.173 31.9097 117.173 32.869C117.173 33.8283 117.371 34.5984 117.773 35.2636C118.256 36.0694 118.931 36.4715 119.802 36.4715C120.672 36.4715 121.324 36.0612 121.807 35.2425C122.219 34.564 122.427 33.7569 122.427 32.8268H122.426Z" fill="black"/>
<path d="M132.006 29.7631C131.785 29.7223 131.549 29.7012 131.301 29.7012C130.515 29.7012 129.908 29.9988 129.48 30.5956C129.108 31.1215 128.922 31.7867 128.922 32.5891V37.8861H126.688L126.709 30.9701C126.709 29.8066 126.681 28.7471 126.625 27.792H128.571L128.653 29.7236H128.715C128.95 29.0597 129.323 28.5252 129.832 28.1244C130.33 27.7637 130.867 27.5835 131.447 27.5835C131.653 27.5835 131.84 27.5981 132.005 27.6243V29.7631H132.006Z" fill="black"/>
<path d="M142 32.3643C142 32.7664 141.974 33.1048 141.918 33.3817H135.215C135.241 34.3788 135.565 35.1417 136.188 35.668C136.753 36.1384 137.483 36.374 138.38 36.374C139.372 36.374 140.278 36.2153 141.092 35.8963L141.442 37.4533C140.49 37.87 139.367 38.0772 138.071 38.0772C136.511 38.0772 135.287 37.6163 134.397 36.6961C133.508 35.7755 133.062 34.5392 133.062 32.9887C133.062 31.4381 133.476 30.1984 134.305 29.1875C135.173 28.1082 136.346 27.5686 137.821 27.5686C139.297 27.5686 140.368 28.1082 141.113 29.1875C141.703 30.0449 142 31.1053 142 32.3648V32.3643ZM139.869 31.7825C139.884 31.1178 139.738 30.5433 139.435 30.0583C139.049 29.4343 138.455 29.123 137.655 29.123C136.925 29.123 136.33 29.427 135.876 30.0372C135.504 30.5222 135.283 31.104 135.215 31.7817H139.869V31.7825Z" fill="black"/>
<path d="M65.3981 15.2805C65.3981 16.5189 65.028 17.4507 64.2892 18.0768C63.6047 18.6543 62.6324 18.9437 61.3727 18.9437C60.7482 18.9437 60.2137 18.9161 59.7661 18.8615V12.0956C60.3499 12.001 60.9787 11.9524 61.6575 11.9524C62.8573 11.9524 63.7619 12.2143 64.3719 12.7384C65.055 13.3305 65.3977 14.1776 65.3977 15.2801L65.3981 15.2805ZM64.2399 15.3111C64.2399 14.5083 64.0283 13.893 63.6047 13.4638C63.1815 13.0355 62.563 12.821 61.7488 12.821C61.4031 12.821 61.1084 12.8442 60.8643 12.8924V18.0359C60.9996 18.057 61.2468 18.0665 61.6061 18.0665C62.4465 18.0665 63.0954 17.8317 63.552 17.3626C64.0086 16.8935 64.2395 16.2093 64.2395 15.3111H64.2399Z" fill="black"/>
<path d="M71.5393 16.3603C71.5393 17.1232 71.3225 17.7479 70.8886 18.2381C70.4337 18.7421 69.8311 18.9936 69.0789 18.9936C68.3268 18.9936 67.7764 18.7528 67.3455 18.2687C66.9159 17.7858 66.7009 17.1765 66.7009 16.4425C66.7009 15.7085 66.9219 15.0441 67.3665 14.5552C67.8107 14.0659 68.4082 13.8208 69.1608 13.8208C69.9133 13.8208 70.4684 14.0616 70.9096 14.5445C71.3289 15.0136 71.5393 15.6195 71.5393 16.3603ZM70.3999 16.396C70.3999 15.9385 70.3014 15.5459 70.1052 15.2187C69.8748 14.8231 69.5467 14.6253 69.1201 14.6253C68.6934 14.6253 68.3435 14.8231 68.1131 15.2187C67.916 15.5459 67.8184 15.9445 67.8184 16.4158C67.8184 16.8871 67.9169 17.2659 68.1131 17.5931C68.3508 17.9887 68.6823 18.1865 69.1098 18.1865C69.5373 18.1865 69.8581 17.9857 70.0949 17.5828C70.2984 17.2491 70.3999 16.8535 70.3999 16.396Z" fill="black"/>
<path d="M79.7711 13.9194L78.2252 18.879H77.2191L76.5787 16.7256C76.4164 16.1881 76.284 15.6536 76.1817 15.1234H76.162C76.0665 15.6682 75.9345 16.2018 75.7649 16.7256L75.0847 18.879H74.067L72.6133 13.9194H73.7419L74.3005 16.2771C74.4358 16.8348 74.5468 17.3658 74.6358 17.8689H74.656C74.7378 17.4544 74.8727 16.9264 75.0637 16.2878L75.7649 13.9207H76.6597L77.3313 16.2375C77.4937 16.8025 77.626 17.3465 77.7275 17.8702H77.7579C77.8325 17.3598 77.9447 16.8159 78.0933 16.2375L78.6929 13.9207H79.7715V13.9199L79.7711 13.9194Z" fill="black"/>
<path d="M85.4674 18.8837H84.3692V16.0432C84.3692 15.1677 84.0381 14.7304 83.3737 14.7304C83.0478 14.7304 82.7848 14.8504 82.5805 15.0912C82.3783 15.332 82.2755 15.6162 82.2755 15.9413V18.8829H81.1773V15.3419C81.1773 14.9063 81.1636 14.4342 81.1375 13.9225H82.1025L82.1539 14.6977H82.1843C82.3123 14.4569 82.503 14.2579 82.7535 14.0992C83.0512 13.9139 83.3844 13.8206 83.7489 13.8206C84.2103 13.8206 84.5936 13.9698 84.8986 14.2699C85.2781 14.6371 85.4678 15.1854 85.4678 15.9133V18.8842L85.4674 18.8837Z" fill="black"/>
<path d="M88.498 18.8794H87.4006V11.6443H88.498V18.8794Z" fill="black"/>
<path d="M94.9645 16.3603C94.9645 17.1232 94.7478 17.7479 94.3139 18.2381C93.859 18.7421 93.2555 18.9936 92.5042 18.9936C91.7529 18.9936 91.2004 18.7528 90.7708 18.2687C90.3411 17.7858 90.1261 17.1765 90.1261 16.4425C90.1261 15.7085 90.3471 15.0441 90.7918 14.5552C91.2359 14.0659 91.8334 13.8208 92.5847 13.8208C93.336 13.8208 93.8924 14.0616 94.3349 14.5445C94.7542 15.0136 94.9645 15.6195 94.9645 16.3603ZM93.8243 16.396C93.8243 15.9385 93.7258 15.5459 93.5296 15.2187C93.3 14.8231 92.9711 14.6253 92.5457 14.6253C92.1204 14.6253 91.7683 14.8231 91.5387 15.2187C91.3417 15.5459 91.2441 15.9445 91.2441 16.4158C91.2441 16.8871 91.3426 17.2659 91.5387 17.5931C91.7765 17.9887 92.108 18.1865 92.5355 18.1865C92.9629 18.1865 93.2825 17.9857 93.5193 17.5828C93.7236 17.2491 93.8243 16.8535 93.8243 16.396Z" fill="black"/>
<path d="M100.276 18.8812H99.2902L99.2084 18.3097H99.178C98.8405 18.7651 98.3595 18.9934 97.735 18.9934C97.2685 18.9934 96.8912 18.8429 96.6072 18.544C96.3493 18.2727 96.2204 17.9347 96.2204 17.534C96.2204 16.9281 96.4719 16.4663 96.9781 16.1464C97.4831 15.8265 98.1937 15.67 99.1086 15.6773V15.5848C99.1086 14.9317 98.7668 14.6053 98.0828 14.6053C97.5954 14.6053 97.1657 14.7283 96.7948 14.9725L96.5716 14.2488C97.0308 13.9637 97.5975 13.8206 98.2661 13.8206C99.5571 13.8206 100.205 14.5042 100.205 15.8721V17.6982C100.205 18.1936 100.229 18.5883 100.276 18.8807L100.276 18.8812ZM99.136 17.1767V16.4117C97.9247 16.3906 97.3186 16.7243 97.3186 17.411C97.3186 17.6699 97.3876 17.8634 97.5294 17.9928C97.6707 18.1222 97.8511 18.1863 98.0661 18.1863C98.3072 18.1863 98.5325 18.1093 98.7377 17.9571C98.9442 17.8036 99.0709 17.6088 99.1181 17.3702C99.1296 17.3164 99.136 17.2515 99.136 17.1767Z" fill="black"/>
<path d="M106.511 18.8794H105.537L105.486 18.083H105.455C105.144 18.6889 104.614 18.992 103.869 18.992C103.273 18.992 102.778 18.7572 102.385 18.2881C101.992 17.819 101.796 17.2097 101.796 16.4619C101.796 15.6591 102.009 15.009 102.436 14.5123C102.85 14.0492 103.358 13.8179 103.961 13.8179C104.625 13.8179 105.089 14.0419 105.353 14.4913H105.374V11.6443H106.473V17.5429C106.473 18.0258 106.486 18.4709 106.512 18.8789L106.511 18.8794ZM105.373 16.7879V15.961C105.373 15.8178 105.363 15.7021 105.343 15.614C105.281 15.3487 105.148 15.1259 104.946 14.9458C104.742 14.766 104.495 14.6753 104.211 14.6753C103.801 14.6753 103.481 14.8383 103.245 15.1655C103.011 15.4927 102.893 15.9103 102.893 16.4207C102.893 16.9311 103.005 17.3086 103.23 17.6147C103.468 17.9407 103.789 18.1041 104.19 18.1041C104.551 18.1041 104.839 17.9682 105.058 17.696C105.27 17.4445 105.373 17.1418 105.373 16.7883V16.7879Z" fill="black"/>
<path d="M115.908 16.3601C115.908 17.1229 115.691 17.7477 115.257 18.2379C114.803 18.7418 114.201 18.9934 113.448 18.9934C112.694 18.9934 112.146 18.7526 111.714 18.2684C111.285 17.7855 111.07 17.1762 111.07 16.4422C111.07 15.7082 111.291 15.0439 111.735 14.555C112.179 14.0657 112.777 13.8206 113.53 13.8206C114.284 13.8206 114.838 14.0614 115.278 14.5442C115.698 15.0134 115.908 15.6192 115.908 16.3601ZM114.77 16.3958C114.77 15.9383 114.671 15.5457 114.475 15.2185C114.244 14.8229 113.917 14.6251 113.489 14.6251C113.062 14.6251 112.714 14.8229 112.482 15.2185C112.285 15.5457 112.188 15.9443 112.188 16.4156C112.188 16.8868 112.286 17.2657 112.482 17.5929C112.72 17.9885 113.052 18.1863 113.479 18.1863C113.906 18.1863 114.228 17.9855 114.465 17.5826C114.667 17.2489 114.77 16.8533 114.77 16.3958Z" fill="black"/>
<path d="M121.817 18.8837H120.719V16.0432C120.719 15.1677 120.388 14.7304 119.723 14.7304C119.397 14.7304 119.134 14.8504 118.93 15.0912C118.727 15.332 118.625 15.6162 118.625 15.9413V18.8829H117.526V15.3419C117.526 14.9063 117.513 14.4342 117.487 13.9225H118.451L118.502 14.6977H118.533C118.662 14.4569 118.852 14.2579 119.102 14.0992C119.401 13.9139 119.733 13.8206 120.099 13.8206C120.559 13.8206 120.943 13.9698 121.247 14.2699C121.628 14.6371 121.817 15.1854 121.817 15.9133V18.8842V18.8837Z" fill="black"/>
<path d="M129.204 14.7447H127.995V17.154C127.995 17.7663 128.21 18.0725 128.636 18.0725C128.833 18.0725 128.996 18.0557 129.125 18.0209L129.153 18.8572C128.937 18.9393 128.651 18.9802 128.3 18.9802C127.866 18.9802 127.529 18.8477 127.285 18.5824C127.039 18.3171 126.918 17.8712 126.918 17.2452V14.7443H126.196V13.9183H126.918V13.0093L127.994 12.6833V13.9174H129.203V14.7443H129.204V14.7447Z" fill="black"/>
<path d="M135.02 18.8794H133.921V16.0599C133.921 15.1711 133.589 14.7261 132.926 14.7261C132.417 14.7261 132.069 14.9836 131.878 15.4992C131.845 15.6075 131.827 15.74 131.827 15.8956V18.8781H130.729V11.6443H131.827V14.6332H131.848C132.193 14.0892 132.689 13.8179 133.331 13.8179C133.786 13.8179 134.162 13.9671 134.461 14.2672C134.833 14.6409 135.02 15.196 135.02 15.9305V18.8794H135.02Z" fill="black"/>
<path d="M141.016 16.1645C141.016 16.3623 141.001 16.5287 140.975 16.6642H137.681C137.696 17.1544 137.853 17.528 138.158 17.7869C138.437 18.0182 138.796 18.1339 139.236 18.1339C139.724 18.1339 140.168 18.0561 140.568 17.8991L140.74 18.6649C140.272 18.8692 139.72 18.9711 139.082 18.9711C138.317 18.9711 137.714 18.7449 137.278 18.2926C136.84 17.8402 136.624 17.2331 136.624 16.4715C136.624 15.71 136.826 15.1007 137.233 14.6041C137.659 14.0739 138.234 13.8086 138.96 13.8086C139.687 13.8086 140.211 14.0739 140.575 14.6041C140.87 15.025 141.016 15.5458 141.016 16.1641V16.1645ZM139.967 15.8794C139.976 15.5522 139.904 15.2701 139.755 15.0324C139.564 14.7262 139.274 14.5727 138.88 14.5727C138.522 14.5727 138.23 14.7219 138.006 15.022C137.824 15.2607 137.716 15.5458 137.68 15.8794H139.967H139.967Z" fill="black"/>
</svg>
