<svg width="164" height="50" viewBox="0 0 164 50" fill="none" xmlns="http://www.w3.org/2000/svg">
<path d="M155.33 0H8.66964C3.88153 0 0 4.11692 0 9.19541V40.8046C0 45.8831 3.88153 50 8.66964 50H155.33C160.118 50 164 45.8831 164 40.8046V9.19541C164 4.11692 160.118 0 155.33 0Z" fill="white"/>
<path d="M39.3377 21.2053L23.9697 11.9473C23.4322 11.6034 22.8046 11.7311 22.4067 12.1362L35.2277 25.6759L39.3377 21.2048V21.2053Z" fill="url(#paint0_linear_0_731)"/>
<path d="M22.3996 12.1382C22.1573 12.3847 22 12.734 22 13.1427V38.6816C22 39.0735 22.1455 39.4106 22.3713 39.6553L35.2211 25.6779L22.4001 12.1382H22.3996Z" fill="url(#paint1_linear_0_731)"/>
<path d="M45.1613 24.719L39.3323 21.2075L35.2222 25.6786L39.6934 30.4003L45.1617 27.1063C46.0045 26.5667 46.0045 25.2586 45.1617 24.7194L45.1613 24.719Z" fill="url(#paint2_linear_0_731)"/>
<path d="M22.3681 39.6586C22.7643 40.0876 23.4092 40.2308 23.9598 39.8783L39.6886 30.4028L35.2175 25.6812L22.3677 39.6586H22.3681Z" fill="url(#paint3_linear_0_731)"/>
<path fill-rule="evenodd" clip-rule="evenodd" d="M54.0221 31.3584C54.0221 27.2932 57.211 23.9834 61.0056 23.9834C63.1031 23.9834 64.5959 24.866 65.722 26.0151L64.3959 27.436C63.5911 26.6263 62.4997 25.9983 61.0039 25.9983C58.2332 25.9983 56.0676 28.3884 56.0676 31.357C56.0676 34.3257 58.2332 36.7189 61.0026 36.7189C62.7991 36.7189 63.8212 35.9464 64.4771 35.2423C65.0141 34.6668 65.366 33.8399 65.5021 32.7063H61.0056V30.6964H67.3345C67.4009 31.0562 67.436 31.4875 67.436 31.9542C67.436 33.4634 67.0495 35.3356 65.8058 36.6677C64.5955 38.017 63.0524 38.737 61.0039 38.737C57.2081 38.737 54.0191 35.4303 54.0191 31.362L54.0221 31.3584ZM72.5516 29.2365C70.1006 29.2365 68.1003 31.2342 68.1003 33.984C68.1003 36.7338 70.0993 38.7315 72.5516 38.7315C75.004 38.7315 77.0004 36.7166 77.0004 33.9822C77.0004 31.2478 75.0027 29.2352 72.5516 29.2365ZM72.5516 36.8643C71.2098 36.8643 70.0503 35.6777 70.0503 33.9858C70.0503 32.294 71.2086 31.1074 72.5516 31.1074C73.8947 31.1074 75.0517 32.2754 75.0517 33.9858C75.0517 35.6963 73.8951 36.8643 72.5516 36.8643ZM82.2581 29.2365C79.8071 29.2365 77.8094 31.2342 77.8094 33.984C77.8094 36.7338 79.8071 38.7315 82.2581 38.7315C84.7092 38.7315 86.7069 36.7166 86.7069 33.9822C86.7069 31.2478 84.7104 29.2352 82.2581 29.2365ZM82.2581 36.8643C80.9163 36.8643 79.7568 35.6777 79.7568 33.9858C79.7568 32.294 80.915 31.1074 82.2581 31.1074C83.6012 31.1074 84.7595 32.2754 84.7595 33.9858C84.7595 35.6963 83.5999 36.8643 82.2581 36.8643ZM94.1708 29.5247V30.2972H94.1044C93.6688 29.7372 92.829 29.2347 91.7722 29.2347C89.5559 29.2347 87.5218 31.3226 87.5218 34.004C87.5218 36.6854 89.5542 38.7347 91.7722 38.7347C92.829 38.7347 93.6684 38.2322 94.1044 37.6568H94.1708V38.3391C94.1708 40.1556 93.2646 41.1279 91.8039 41.1279C90.611 41.1279 89.8726 40.2095 89.5702 39.4388L87.8736 40.1941C88.3599 41.4519 89.6544 43.0001 91.8027 43.0001C94.0841 43.0001 96.0154 41.5593 96.0154 38.0523V29.5233L94.1708 29.5247ZM91.9384 36.8643C90.5966 36.8643 89.4687 35.6577 89.4687 34.0044C89.4687 32.3511 90.5949 31.1087 91.9384 31.1087C93.2819 31.1087 94.3053 32.3312 94.3053 34.0044C94.3066 35.6577 93.2658 36.8643 91.9384 36.8643ZM97.3598 24.4872H99.3085V38.4465H97.3598V24.4872ZM104.649 36.8643C103.659 36.8643 102.952 36.3773 102.502 35.4267L108.428 32.7978L108.224 32.2582C107.857 31.1989 106.73 29.237 104.43 29.237C102.13 29.237 100.249 31.1617 100.249 33.9863C100.249 36.6464 102.13 38.7338 104.649 38.7338C106.681 38.7338 107.857 37.4044 108.343 36.6292L106.832 35.5513C106.326 36.3437 105.637 36.8661 104.649 36.8643ZM104.497 31.0711C105.269 31.0711 105.923 31.4852 106.141 32.0779L102.178 33.8413C102.129 32.0063 103.505 31.0711 104.497 31.0711Z" fill="black"/>
<path fill-rule="evenodd" clip-rule="evenodd" d="M116.977 24.4836H112.319V38.4429H114.263V33.1554H116.979C119.134 33.1554 121.254 31.4834 121.254 28.8188C121.254 26.1542 119.136 24.4855 116.982 24.4855L116.977 24.4841V24.4836ZM117.028 31.212H114.263V26.4256H117.028C118.482 26.4256 119.31 27.7178 119.31 28.8188C119.31 29.9198 118.482 31.212 117.028 31.212ZM124.269 38.4429V24.4836H122.325V38.4429H124.269ZM133.003 38.418V33.067C133.003 30.5886 131.274 29.2067 129.044 29.2067C127.638 29.2067 126.18 29.8723 125.576 31.3439L127.302 32.1146C127.671 31.3439 128.357 31.0911 129.08 31.0911C130.084 31.0911 131.107 31.7376 131.122 32.8889V33.033C130.77 32.8173 130.018 32.4934 129.094 32.4934C127.234 32.4934 125.34 33.5885 125.34 35.6356C125.34 37.5046 126.866 38.7066 128.576 38.7066C129.885 38.7066 130.604 38.0786 131.056 37.3433H131.122V38.4212H133.001L133.002 38.418H133.003ZM128.812 36.8576C128.175 36.8576 127.286 36.5164 127.286 35.6741C127.286 34.5962 128.394 34.1802 129.349 34.1802C130.204 34.1802 130.605 34.3773 131.127 34.6469C130.978 35.9002 129.989 36.8417 128.812 36.8571V36.8576ZM139.84 29.512L137.61 35.5626H137.544L135.231 29.512H133.136L136.605 37.9713L134.626 42.6757H136.654L142 29.512H139.84H139.84Z" fill="black"/>
<path d="M87.2523 18.3104C86.2556 18.3104 85.4157 17.9524 84.7511 17.2474C84.092 16.5624 83.7243 15.6181 83.7409 14.6539C83.7409 13.6248 84.0814 12.7537 84.7511 12.063C85.4127 11.3584 86.2527 11 87.2493 11C88.246 11 89.075 11.358 89.7506 12.063C90.4202 12.7763 90.7608 13.6474 90.7608 14.6539C90.7498 15.6855 90.4092 16.5567 89.7506 17.2448C89.0889 17.955 88.249 18.3104 87.2523 18.3104ZM57.599 18.3104C56.6243 18.3104 55.7789 17.9581 55.0867 17.2617C54.4005 16.5684 54.0515 15.6916 54.0515 14.6569C54.0515 13.6222 54.4001 12.7458 55.0867 12.0521C55.7649 11.3558 56.6103 11.0035 57.599 11.0035C58.0823 11.0035 58.5516 11.1022 59.0019 11.3023C59.4441 11.4967 59.8037 11.7616 60.0697 12.086L60.1358 12.1678L59.3915 12.9176L59.3145 12.8245C58.8943 12.3113 58.3318 12.0608 57.5875 12.0608C56.9229 12.0608 56.3439 12.3031 55.8661 12.7824C55.3858 13.2643 55.1414 13.8958 55.1414 14.66C55.1414 15.4241 55.3858 16.0552 55.8661 16.5376C56.3439 17.0169 56.9229 17.2591 57.5875 17.2591C58.2958 17.2591 58.8917 17.0169 59.3555 16.5376C59.63 16.2557 59.8003 15.8608 59.8609 15.3619H57.4753V14.3077H60.8851L60.8986 14.4034C60.9232 14.5808 60.9482 14.7643 60.9482 14.9335C60.9482 15.906 60.6627 16.6924 60.0972 17.2735C59.4547 17.9615 58.6147 18.3108 57.599 18.3108V18.3104ZM97.0263 18.1607H95.975L92.7546 12.8693L92.7821 13.8223V18.1581H91.7308V11.1527H92.9304L92.9634 11.2062L95.9915 16.1901L95.964 15.2402V11.1527H97.0263V18.1607ZM79.3513 18.1607H78.286V12.2069H76.4384V11.1527H81.1964V12.2069H79.3488V18.1607H79.3513ZM75.5709 18.1607H74.5086V11.1527H75.5709V18.1607ZM69.5997 18.1607H68.5374V12.2069H66.6898V11.1527H71.4478V12.2069H69.6002V18.1607H69.5997ZM66.0171 18.1494H61.9427V11.1527H66.0171V12.2069H63.008V14.1293H65.7232V15.1723H63.008V17.0947H66.0171V18.149V18.1494ZM85.5317 16.5228C86.0066 17.0103 86.583 17.2556 87.2532 17.2556C87.9232 17.2556 88.5052 17.016 88.9746 16.5228C89.4414 16.0435 89.6773 15.415 89.6773 14.6565C89.6773 13.898 89.4413 13.2669 88.9771 12.7902C88.5023 12.3026 87.9228 12.0573 87.2557 12.0573C86.5886 12.0573 86.0036 12.297 85.5372 12.7902C85.0705 13.2695 84.8345 13.898 84.8345 14.6565C84.8345 15.415 85.0679 16.0461 85.5317 16.5228Z" fill="black"/>
<defs>
<linearGradient id="paint0_linear_0_731" x1="24.0454" y1="11.278" x2="37.8487" y2="22.3258" gradientUnits="userSpaceOnUse">
<stop offset="0.2" stop-color="#0DD763"/>
<stop offset="0.22" stop-color="#0CD863"/>
<stop offset="0.34" stop-color="#05E46B"/>
<stop offset="0.52" stop-color="#01EB6F"/>
<stop offset="1" stop-color="#00ED71"/>
</linearGradient>
<linearGradient id="paint1_linear_0_731" x1="20.0767" y1="28.3924" x2="29.0028" y2="19.9858" gradientUnits="userSpaceOnUse">
<stop stop-color="#02DEFF"/>
<stop offset="1" stop-color="#0FC2FE"/>
</linearGradient>
<linearGradient id="paint2_linear_0_731" x1="35.2789" y1="25.859" x2="45.6732" y2="25.7409" gradientUnits="userSpaceOnUse">
<stop stop-color="#FEC70D"/>
<stop offset="1" stop-color="#FFC80D"/>
</linearGradient>
<linearGradient id="paint3_linear_0_731" x1="23.1521" y1="40.0931" x2="37.9148" y2="29.2566" gradientUnits="userSpaceOnUse">
<stop stop-color="#DD1D4F"/>
<stop offset="1" stop-color="#EE4449"/>
</linearGradient>
</defs>
</svg>
