<svg width="219" height="200" viewBox="0 0 219 200" fill="none" xmlns="http://www.w3.org/2000/svg">
<g clip-path="url(#clip0_0_575)">
<path d="M183.438 199.152L37.0049 199.152V170.798L183.438 170.798C188.828 170.798 193.195 175.023 193.195 180.218V189.732C193.195 194.936 188.819 199.152 183.438 199.152Z" fill="#080717"/>
<path d="M183.44 200.001H37.0066C36.5174 200.001 36.1172 199.615 36.1172 199.143V170.788C36.1172 170.316 36.5174 169.93 37.0066 169.93H183.44C189.31 169.93 194.086 174.541 194.086 180.208V189.723C194.086 195.39 189.31 200.001 183.44 200.001ZM37.896 198.284H183.44C188.332 198.284 192.308 194.446 192.308 189.723V180.208C192.308 175.485 188.332 171.647 183.44 171.647H37.896V198.284Z" fill="#080717"/>
<path d="M117.274 199.152H36.9956V170.798H117.274C122.664 170.798 127.031 175.023 127.031 180.218V189.732C127.031 194.936 122.655 199.152 117.274 199.152Z" fill="white"/>
<path d="M117.276 200.001H37.0066C36.5174 200.001 36.1172 199.615 36.1172 199.143V170.788C36.1172 170.316 36.5174 169.93 37.0066 169.93H117.285C123.155 169.93 127.932 174.541 127.932 180.208V189.723C127.932 195.39 123.155 200.001 117.285 200.001H117.276ZM37.8871 198.284H117.276C122.168 198.284 126.144 194.446 126.144 189.723V180.208C126.144 175.485 122.168 171.647 117.276 171.647H37.896V198.284H37.8871Z" fill="#080717"/>
<path d="M85.4094 179.315H37.7722C37.283 179.315 36.8828 178.929 36.8828 178.456C36.8828 177.984 37.283 177.598 37.7722 177.598H85.4094C85.8985 177.598 86.2988 177.984 86.2988 178.456C86.2988 178.929 85.8985 179.315 85.4094 179.315Z" fill="#080717"/>
<path d="M70.438 187.256H38.5613C38.0721 187.256 37.6719 186.87 37.6719 186.398C37.6719 185.925 38.0721 185.539 38.5613 185.539H70.438C70.9271 185.539 71.3274 185.925 71.3274 186.398C71.3274 186.87 70.9271 187.256 70.438 187.256Z" fill="#080717"/>
<path d="M191.517 170.355L32.9959 170.355V139.811L191.517 139.811C196.906 139.811 201.273 144.036 201.273 149.231V160.936C201.273 166.139 196.898 170.355 191.517 170.355Z" fill="white"/>
<path d="M191.528 171.215H32.9988C32.5096 171.215 32.1094 170.829 32.1094 170.357V139.804C32.1094 139.332 32.5096 138.945 32.9988 138.945H191.528C197.398 138.945 202.175 143.557 202.175 149.224V160.928C202.175 166.595 197.398 171.207 191.528 171.207V171.215ZM33.8882 169.498H191.528C196.42 169.498 200.396 165.659 200.396 160.937V149.233C200.396 144.51 196.42 140.671 191.528 140.671H33.8882V169.506V169.498Z" fill="#080717"/>
<path d="M120.243 170.355H33.0003V139.811H120.243C125.633 139.811 130 144.036 130 149.231V160.936C130 166.139 125.624 170.355 120.243 170.355Z" fill="white"/>
<path d="M120.251 171.215H32.9988C32.5096 171.215 32.1094 170.829 32.1094 170.357V139.804C32.1094 139.332 32.5096 138.945 32.9988 138.945H120.242C126.112 138.945 130.888 143.557 130.888 149.224V160.928C130.888 166.595 126.112 171.207 120.242 171.207L120.251 171.215ZM33.8971 169.498H120.251C125.142 169.498 129.118 165.659 129.118 160.937V149.233C129.118 144.51 125.142 140.671 120.251 140.671H33.8882V169.506L33.8971 169.498Z" fill="#080717"/>
<path d="M109.481 148.924H33.8269C33.3377 148.924 32.9375 148.538 32.9375 148.066C32.9375 147.593 33.3377 147.207 33.8269 147.207H109.481C109.97 147.207 110.37 147.593 110.37 148.066C110.37 148.538 109.97 148.924 109.481 148.924Z" fill="#080717"/>
<path d="M186.6 154.479H142.538C142.049 154.479 141.648 154.093 141.648 153.62C141.648 153.148 142.049 152.762 142.538 152.762H186.6C187.089 152.762 187.489 153.148 187.489 153.62C187.489 154.093 187.089 154.479 186.6 154.479Z" fill="#080717"/>
<path d="M98.4219 184.277V160.508H106.987H115.552V184.277L106.987 179.502L98.4219 184.277Z" fill="#FFB000"/>
<path d="M59.9734 105.466L69.6858 72.6211L55.6331 73.4884L64.9541 57.0357C67.8892 51.8577 72.2474 47.5642 77.5394 44.6275L87.9722 38.8398L109.665 43.786V106.609L59.9734 105.466Z" fill="#FFB000"/>
<path d="M36.7761 185.642V198.772H3.28065C0.470097 198.772 -0.00129372 193.877 2.52465 191.482L23.5505 182.852C23.5505 182.852 26.699 190.511 36.7761 185.642Z" fill="white"/>
<path d="M36.7761 185.987V195.364H3.28065C0.470097 195.364 -0.00129372 192.565 2.52465 190.848L23.3103 182.836C23.3103 182.836 26.699 189.457 36.7761 185.979V185.987Z" fill="#FFB000"/>
<path d="M37.1265 200.002H20.2229H3.31924C2.01758 200.002 0.949325 199.231 0.392753 197.879C-0.39722 195.953 -0.0471184 192.8 1.91884 190.865C1.99963 190.785 2.09838 190.722 2.19712 190.677L23.4187 181.675C23.6431 181.577 23.8944 181.577 24.1189 181.675C24.3433 181.765 24.5228 181.944 24.6126 182.168C24.6126 182.195 25.6898 184.739 28.4188 185.769C30.69 186.62 33.4818 186.235 36.7225 184.613C37.0008 184.479 37.333 184.488 37.5933 184.649C37.8536 184.81 38.0152 185.097 38.0152 185.411V199.106C38.0152 199.598 37.6113 200.002 37.1175 200.002H37.1265ZM3.07687 192.254C1.76623 193.651 1.52385 195.881 2.06247 197.198C2.34075 197.87 2.76267 198.21 3.32822 198.21H36.2288V186.808C33.033 188.142 30.1873 188.357 27.7545 187.426C25.3397 186.503 23.9842 184.703 23.3648 183.646L3.07687 192.254Z" fill="black"/>
<path d="M64.2498 185.491V198.62L43.8822 198.775C41.0717 198.775 40.6003 193.88 43.1262 191.484L49.7346 183.344C49.7346 183.344 54.1728 190.359 64.241 185.499L64.2498 185.491Z" fill="white"/>
<path d="M64.2498 185.844V195.221L43.8822 195.375C41.0717 195.375 40.6003 192.576 43.1262 190.859L49.4944 183.336C49.4944 183.336 57.2946 182.1 64.2498 185.844Z" fill="#FFB000"/>
<path d="M43.8914 199.635C42.5929 199.635 41.5345 198.896 40.9919 197.599C40.2092 195.762 40.5561 192.774 42.4683 190.91L49.0411 182.813C49.1568 182.675 49.308 182.572 49.4858 182.521C49.7794 182.435 56.7435 180.503 64.6771 184.745C64.9617 184.899 65.1396 185.183 65.1396 185.5V198.63C65.1396 199.102 64.7482 199.489 64.259 199.489L43.8914 199.635ZM50.2507 184.101L43.8292 192.009C43.8292 192.009 43.7847 192.069 43.758 192.087C42.3616 193.418 42.0859 195.642 42.6373 196.938C42.9131 197.582 43.3311 197.909 43.8914 197.909L63.3696 197.763V185.998C57.1081 182.838 51.5137 183.809 50.2596 184.092L50.2507 184.101Z" fill="black"/>
<path d="M75.4277 139.818H36.8982V179.206H26.6966L2.14875 121.948C-1.15988 114.074 4.84368 105.461 13.6489 105.461H90.788L75.4277 139.818Z" fill="white"/>
<path d="M36.9002 180.064H26.6986C26.3429 180.064 26.0138 179.858 25.8804 179.532L1.33247 122.274C-0.339635 118.306 0.149544 113.815 2.62212 110.269C5.0947 106.723 9.22159 104.602 13.6509 104.602H90.79C91.0924 104.602 91.3681 104.748 91.5371 104.988C91.6972 105.228 91.7328 105.538 91.6082 105.804L76.248 140.16C76.1057 140.478 75.7855 140.676 75.4298 140.676H37.7896V179.205C37.7896 179.678 37.3894 180.064 36.9002 180.064ZM27.2945 178.347H36.0108V139.817C36.0108 139.345 36.4111 138.958 36.9002 138.958H74.8427L89.4292 106.319H13.6509C9.80861 106.319 6.24205 108.157 4.09855 111.231C1.95506 114.305 1.53703 118.195 2.97789 121.621L27.3034 178.347H27.2945Z" fill="black"/>
<path d="M123.526 105.297H74.7058C68.8802 105.297 63.9083 109.367 62.9478 114.923L52.0079 178.724H64.6021C65.2336 178.724 96.959 138.486 96.959 138.486H106.476C112.462 138.486 117.718 134.647 119.346 129.083L123.526 105.297Z" fill="white"/>
<path d="M64.6038 179.574H52.0097C51.7518 179.574 51.5027 179.462 51.3338 179.273C51.1648 179.084 51.0936 178.827 51.1381 178.578L62.0779 114.776C63.1096 108.783 68.4194 104.438 74.7076 104.438H123.537C123.795 104.438 124.044 104.549 124.213 104.738C124.382 104.936 124.453 105.185 124.408 105.434L120.228 129.22C120.228 129.22 120.219 129.28 120.21 129.305C118.485 135.213 112.837 139.335 106.486 139.335H97.4055C95.9558 141.173 88.8315 150.198 81.7251 159.12C65.431 179.574 65.2264 179.574 64.6038 179.574ZM53.0592 177.856H64.257C66.5339 175.469 84.4111 152.98 96.2493 137.961C96.4183 137.747 96.6762 137.626 96.9608 137.626H106.486C112.036 137.626 116.964 134.037 118.485 128.893L122.478 106.163H74.7076C69.2911 106.163 64.7195 109.907 63.83 115.068L53.0592 177.874V177.856Z" fill="black"/>
<path d="M93.0495 144.41C92.8627 144.41 92.6848 144.358 92.5247 144.238C92.1334 143.954 92.0444 143.422 92.3379 143.036L99.1509 134.114C99.4444 133.736 99.9958 133.65 100.396 133.933C100.787 134.217 100.876 134.749 100.583 135.136L93.7699 144.057C93.592 144.289 93.3252 144.41 93.0495 144.41Z" fill="black"/>
<path d="M36.7802 186.505C36.291 186.505 35.8907 186.119 35.8907 185.647V179.206C35.8907 178.734 36.291 178.348 36.7802 178.348C37.2693 178.348 37.6696 178.734 37.6696 179.206V185.647C37.6696 186.119 37.2693 186.505 36.7802 186.505Z" fill="black"/>
<path d="M23.5518 183.713C23.3473 183.713 23.1516 183.644 22.9826 183.515C22.609 183.215 22.5557 182.674 22.867 182.304L26.0155 178.655C26.3268 178.294 26.8871 178.243 27.2696 178.543C27.6431 178.844 27.6965 179.385 27.3852 179.754L24.2367 183.404C24.0588 183.61 23.8097 183.713 23.5518 183.713Z" fill="black"/>
<path d="M49.9316 184.196C49.8159 184.196 49.6914 184.17 49.5758 184.127C49.1222 183.938 48.9176 183.431 49.1133 182.993L51.1945 178.374C51.3902 177.936 51.915 177.738 52.3686 177.927C52.8222 178.116 53.0267 178.623 52.8311 179.061L50.7498 183.68C50.6075 184.007 50.2784 184.196 49.9316 184.196Z" fill="black"/>
<path d="M64.1005 186.204C63.6113 186.204 63.2111 185.817 63.2111 185.345V179.085C63.2111 178.613 63.6113 178.227 64.1005 178.227C64.5897 178.227 64.9899 178.613 64.9899 179.085V185.345C64.9899 185.817 64.5897 186.204 64.1005 186.204Z" fill="black"/>
<path d="M96.5254 54.9147C95.4759 55.4127 86.0303 52.4932 86.3861 51.4627L75.3484 29.8492C72.7335 24.7228 74.9126 18.5144 80.2224 15.9898C85.5322 13.4652 91.9627 15.569 94.5776 20.6955L105.784 41.227C107.412 44.2153 96.5165 54.9147 96.5165 54.9147H96.5254Z" fill="white"/>
<path d="M96.1639 55.8006C93.6736 55.8006 87.3142 53.6023 86.0424 52.5204C85.6777 52.2112 85.5354 51.9021 85.4998 51.6531L74.56 30.2199C73.1903 27.5322 72.9857 24.4924 73.9819 21.6587C74.978 18.825 77.0593 16.5322 79.8431 15.2098C82.627 13.8874 85.7755 13.6899 88.7106 14.6517C91.6457 15.6134 94.0204 17.6228 95.3901 20.3105L106.588 40.8249C108.385 44.1137 99.8283 52.8982 97.1601 55.5172C97.0889 55.5859 97.0089 55.646 96.9199 55.689C96.742 55.7749 96.4841 55.8092 96.1639 55.8092V55.8006ZM87.2609 51.2753C88.2926 52.1168 94.4918 54.109 96.0572 54.109C96.0661 54.109 96.075 54.109 96.0928 54.109C101.065 49.1886 105.796 43.0489 105.014 41.6149L93.807 21.0833C92.6329 18.7906 90.6229 17.0904 88.1414 16.2746C85.651 15.4589 82.9828 15.6306 80.6347 16.7469C78.2778 17.8718 76.5167 19.8039 75.6718 22.2082C74.8268 24.6126 75.0047 27.1801 76.161 29.4557L87.1986 51.0692C87.2342 51.1379 87.252 51.198 87.2698 51.2667L87.2609 51.2753Z" fill="black"/>
<path d="M93.8596 37.2184C91.4137 41.9155 86.2373 44.9897 80.4649 44.6204C72.7715 44.131 66.9458 37.7165 67.4439 30.2887L68.4311 15.854C68.9381 8.4262 75.582 2.80171 83.2755 3.28258C90.9689 3.77204 96.7946 10.1865 96.2966 17.6143L93.8596 37.2184Z" fill="white"/>
<path d="M81.3988 45.5035C81.0697 45.5035 80.7407 45.4949 80.4116 45.4692C72.2378 44.9539 66.0297 38.1101 66.5634 30.2186L67.5417 15.7839C67.7996 11.9626 69.5874 8.46774 72.5758 5.94316C75.5554 3.41858 79.3798 2.16487 83.3377 2.4139C91.5115 2.92912 97.7196 9.77296 97.186 17.6644C97.1504 18.1367 96.7235 18.4802 96.2432 18.463C95.754 18.4287 95.3804 18.0251 95.416 17.5528C95.8874 10.6059 90.4175 4.58641 83.231 4.1313C79.7356 3.91662 76.3825 5.01576 73.7587 7.23121C71.135 9.45524 69.5607 12.5294 69.3294 15.8955L68.3511 30.3303C68.1198 33.6964 69.2672 36.9423 71.5619 39.4754C73.8655 42.0086 77.0496 43.5285 80.5361 43.7518C85.7925 44.0866 90.7199 41.3646 93.0769 36.822C93.2992 36.4013 93.8329 36.2295 94.2687 36.4442C94.7045 36.6589 94.8824 37.1741 94.66 37.5949C92.1252 42.4723 86.9932 45.4949 81.3988 45.4949V45.5035Z" fill="black"/>
<path d="M102.027 17.1496C101.858 13.3713 100.462 9.88501 98.2026 7.04271C96.4149 5.88346 94.2981 5.35107 92.2435 5.66879C92.2435 4.34639 91.9411 2.98105 91.3008 1.68442C89.2729 0.774193 87.0494 0.190277 84.6924 0.0357106C74.4463 -0.616902 65.6055 6.87097 64.9296 16.7632L64.8673 17.6219C65.988 17.6133 67.1086 17.3729 68.167 16.8662C70.3461 15.8272 71.787 13.8951 72.3295 11.6711C74.3307 12.3752 76.5453 12.3495 78.5287 11.4049C78.5732 11.3791 78.6177 11.3534 78.6622 11.3362C80.6189 13.0622 83.2071 13.8694 85.6797 13.483C85.6797 14.8483 85.9998 16.248 86.6758 17.579C88.8638 21.8639 93.9334 23.7702 98.007 21.8295C100.026 20.8678 101.413 19.1504 102.036 17.1324L102.027 17.1496Z" fill="#080717"/>
<path d="M92.0262 23.781C90.0784 19.9598 91.706 15.34 95.6639 13.4508C99.6219 11.5703 104.416 13.1417 106.364 16.9629C108.311 20.7841 106.684 25.4039 102.726 27.2931C101.08 28.0745 99.2839 28.2634 97.6118 27.9371L92.0262 23.7896V23.781Z" fill="white"/>
<path d="M99.2045 28.9492C98.6175 28.9492 98.0216 28.8891 97.4257 28.7774C96.9454 28.683 96.6341 28.2279 96.7319 27.7642C96.8298 27.3005 97.3012 26.9999 97.7814 27.0944C99.329 27.4035 100.903 27.1974 102.326 26.5276C104.025 25.7205 105.297 24.3208 105.911 22.5862C106.524 20.8516 106.391 18.9968 105.555 17.3481C104.719 15.708 103.269 14.4801 101.473 13.8876C99.6759 13.3037 97.7548 13.4239 96.0471 14.2311C94.3483 15.0382 93.0764 16.4379 92.4627 18.1725C91.849 19.9071 91.9825 21.7619 92.8185 23.4106C93.0409 23.8399 92.8541 24.3465 92.4183 24.5612C91.9736 24.7759 91.4488 24.5956 91.2264 24.1748C90.1769 22.1225 90.0168 19.7954 90.7817 17.6315C91.5466 15.459 93.1387 13.7158 95.2644 12.7026C97.3901 11.6893 99.8004 11.5433 102.042 12.2732C104.292 13.0117 106.097 14.5488 107.147 16.6011C108.197 18.6534 108.357 20.9804 107.592 23.1444C106.827 25.3169 105.235 27.06 103.109 28.0733C101.873 28.6572 100.548 28.9578 99.2045 28.9578V28.9492Z" fill="black"/>
<path d="M72.2794 24.6283C72.3061 25.5471 71.7725 26.3027 71.0876 26.3285C70.4028 26.3543 69.8246 25.6158 69.798 24.697C69.7713 23.7782 70.3049 23.0225 70.9898 22.9967C71.6746 22.971 72.2527 23.7095 72.2794 24.6283Z" fill="black"/>
<path d="M79.381 25.3506C79.4077 26.2694 78.874 27.025 78.1892 27.0508C77.5043 27.068 76.9262 26.3381 76.8995 25.4193C76.8728 24.5005 77.4065 23.7448 78.0913 23.719C78.7762 23.7019 79.3543 24.4318 79.381 25.3506Z" fill="black"/>
<path d="M75.7219 34.6678C75.2772 34.6678 74.8858 34.3415 74.8414 33.9035C74.788 33.4312 75.1438 33.0105 75.6329 32.959C76.6113 32.8559 77.563 32.3063 78.1144 31.5163C78.3901 31.1213 78.9416 31.0183 79.3507 31.2845C79.7598 31.5507 79.8666 32.0831 79.5908 32.4781C78.737 33.6974 77.3317 34.5132 75.8197 34.6678C75.7841 34.6678 75.7575 34.6678 75.7219 34.6678Z" fill="black"/>
<path d="M74.4408 30.3999C74.4408 30.3999 74.3785 30.3999 74.3429 30.3999C73.8537 30.3484 73.5069 29.919 73.5602 29.4467L74.1561 24.3546C74.2095 23.8824 74.6542 23.5475 75.1434 23.599C75.6326 23.6505 75.9794 24.0799 75.9261 24.5521L75.3302 29.6442C75.2768 30.0822 74.8943 30.4085 74.4496 30.4085L74.4408 30.3999Z" fill="black"/>
<path d="M69.2434 22.0032C68.9588 22.0032 68.6831 21.8744 68.5052 21.6254C68.2295 21.2304 68.3362 20.698 68.7365 20.4318C69.5903 19.8651 70.5865 19.4872 71.6182 19.3241C72.1074 19.2468 72.561 19.5645 72.641 20.0368C72.7211 20.5005 72.392 20.947 71.9028 21.0243C71.129 21.1445 70.3819 21.4365 69.7415 21.8572C69.5903 21.9603 69.4124 22.0032 69.2434 22.0032Z" fill="black"/>
<path d="M80.4135 22.6711C80.1289 22.6711 79.8442 22.5337 79.6753 22.2847C79.2928 21.718 78.439 21.4432 77.7808 21.6665C77.3183 21.821 76.8113 21.5892 76.6512 21.1426C76.4911 20.6961 76.7313 20.2067 77.1938 20.0521C78.6257 19.5712 80.3245 20.1208 81.1606 21.3402C81.4274 21.7352 81.3207 22.2675 80.9115 22.5252C80.7603 22.6196 80.5914 22.6711 80.4224 22.6711H80.4135Z" fill="black"/>
<path d="M95.5104 24.7248C95.1457 24.7248 94.8077 24.5101 94.6743 24.158C94.1051 22.6381 93.9895 20.9894 94.3363 19.4094C94.4342 18.9457 94.9145 18.6537 95.3947 18.7482C95.875 18.8512 96.1863 19.3064 96.0796 19.7701C95.8039 21.0238 95.9017 22.3719 96.3553 23.5827C96.5243 24.0292 96.2842 24.5187 95.8217 24.6818C95.7238 24.7162 95.6171 24.7333 95.5193 24.7333L95.5104 24.7248Z" fill="black"/>
<path d="M91.8601 6.89826C91.6555 6.89826 91.4421 6.82956 91.2731 6.68358C90.9262 6.38304 90.864 5.8764 91.1486 5.52433C91.9313 4.52824 92.4293 3.29171 92.545 2.05518C92.5894 1.5829 93.0075 1.23083 93.5144 1.28235C94.0036 1.32529 94.3594 1.74605 94.3149 2.21834C94.2526 2.85378 94.1192 3.48063 93.9058 4.08172C94.4305 3.93574 94.9553 3.83269 95.4445 3.72965L95.6757 3.67813C96.1471 3.57508 96.6274 3.87563 96.7341 4.33933C96.8319 4.80303 96.5295 5.25814 96.0493 5.36118L95.818 5.4127C94.6084 5.66173 93.2298 5.93651 92.4827 6.64923C92.3137 6.81239 92.0825 6.89826 91.8601 6.89826Z" fill="black"/>
<path d="M68.0245 78.514L60.7579 71.3009C60.7579 71.3009 66.379 67.0675 73.3699 68.1924C80.3607 69.3173 99.9011 78.9777 99.9011 78.9777C99.9011 78.9777 95.8543 64.1479 95.9255 60.8419C95.9966 57.5359 95.2406 51.1128 97.2952 48.0043C99.3497 44.8958 101.885 42.9723 104.766 43.3072C107.648 43.6421 114.505 45.162 118.41 51.1815C122.314 57.201 127.455 69.1198 128.834 79.9738C130.212 90.8277 130.826 100.291 125.543 104.533C120.26 108.766 115.537 110.294 111.561 108.766C107.586 107.246 98.3269 104.661 92.1632 98.8394C85.9907 93.0174 81.8816 91.0939 81.8816 91.0939L68.0334 78.514H68.0245Z" fill="white"/>
<path d="M75.473 101.321L17.6876 45.1789L19.0662 44.1484L78.835 98.0834L75.473 101.321Z" fill="#080717"/>
<path d="M75.4735 104.37L14.3439 44.9737L19.2001 41.3242L82.0285 98.0242L75.4646 104.361L75.4735 104.37ZM71.2932 94.2116L75.4824 98.2818L75.6336 98.1359L71.2843 94.2116H71.2932Z" fill="#080717"/>
<path d="M75.338 101.464L42.9454 69.847L49.9451 63.0977L82.3288 94.7064L75.338 101.464Z" fill="white"/>
<path d="M75.3279 102.323C75.0877 102.323 74.8654 102.229 74.6964 102.066L42.3038 70.4482C41.957 70.1133 41.9658 69.5724 42.3038 69.2375L49.3035 62.4795C49.4725 62.3163 49.6949 62.2305 49.935 62.2305C50.1752 62.2305 50.3975 62.3249 50.5665 62.4881L82.9502 94.1054C83.297 94.4403 83.2881 94.9813 82.9502 95.3162L75.9504 102.074C75.7815 102.237 75.5591 102.323 75.319 102.323H75.3279ZM44.1983 69.8471L75.3367 100.245L81.0735 94.7065L49.935 64.3085L44.1894 69.8471H44.1983Z" fill="black"/>
<path d="M115.162 109.9C114.406 109.9 113.703 109.857 113.063 109.78C100.789 108.406 85.082 94.3831 84.4238 93.782C84.0681 93.4557 84.0414 92.9147 84.3794 92.5712C84.7173 92.2277 85.2777 92.202 85.6334 92.5283C85.7935 92.6742 101.572 106.766 113.268 108.071C118.373 108.637 125.115 107.298 128.236 97.6461C131.305 88.1746 123.487 62.9546 123.407 62.697C121.45 54.4878 115.562 47.103 109.078 44.6815C106.882 43.8657 103.662 43.2904 100.825 45.1967C93.7449 49.9625 98.3432 68.1154 98.3877 68.2957L100.62 78.6517C100.691 78.9694 100.567 79.3043 100.291 79.5018C100.024 79.7079 99.6595 79.7422 99.3571 79.5962L92.3663 76.2902C91.9216 76.0841 91.7437 75.5689 91.9572 75.1396C92.1706 74.7102 92.7043 74.5385 93.149 74.7446L98.5122 77.2777L96.6622 68.6736C96.4665 67.9179 91.7348 49.224 99.8107 43.7884C102.523 41.9594 106.046 41.7104 109.719 43.0757C116.727 45.6861 123.06 53.569 125.124 62.2505C125.435 63.2466 133.164 88.1747 129.926 98.1528C126.751 107.959 119.983 109.891 115.153 109.891L115.162 109.9Z" fill="black"/>
<path d="M115.295 87.4184C115.162 87.4184 115.029 87.3926 114.895 87.3239C114.673 87.2209 92.8911 76.6245 85.6245 72.8376C74.9071 67.2561 64.9189 69.1967 61.1389 71.7299C60.7387 72.0047 60.1783 71.9016 59.9026 71.5152C59.618 71.1288 59.7247 70.5878 60.125 70.3216C65.3014 66.8525 76.2857 66.0367 86.4695 71.3263C93.7093 75.096 115.482 85.6838 115.696 85.7868C116.132 86.0015 116.309 86.5167 116.087 86.9375C115.927 87.238 115.616 87.4098 115.295 87.4098V87.4184Z" fill="black"/>
<path d="M49.0798 79.8951C48.9553 79.689 47.3365 83.2268 48.1192 85.0559C49.6757 88.671 52.2283 87.9239 52.2283 87.9239C52.2283 87.9239 53.9627 92.6468 59.6283 92.6468C60.1352 92.6468 60.5888 95.6952 65.6585 96.176C66.7169 96.2791 67.295 98.838 73.1563 97.8934C81.9348 96.4852 87.5115 90.792 87.5115 90.792L69.6875 72.6133C69.6875 72.6133 65.6318 79.1909 60.4999 80.8654C53.3223 83.2011 50.4495 82.1019 49.0709 79.8951H49.0798Z" fill="white"/>
<path d="M53.9638 83.4933C52.6564 83.4933 51.5802 83.1927 50.7619 82.6002C49.1966 81.4667 49.1877 79.715 49.1877 79.6463C49.1877 79.174 49.5879 78.7962 50.0771 78.7962C50.5663 78.7962 50.9576 79.1826 50.9576 79.6549C50.9576 79.715 50.9932 80.651 51.8381 81.2521C52.861 81.9734 54.7021 81.9734 57.1835 81.2521C64.121 79.2341 66.6825 76.4948 67.1005 75.1982C67.2428 74.7431 67.7409 74.4941 68.2123 74.6315C68.6837 74.7774 68.9416 75.2583 68.7993 75.7048C68.1144 77.8173 64.8414 80.8141 57.6905 82.8922C56.2852 83.3043 55.04 83.5018 53.9549 83.5018L53.9638 83.4933Z" fill="black"/>
<path d="M53.6703 88.9467C52.6475 88.9467 51.7225 88.8093 51.0109 88.4744C47.311 86.7313 46.4304 83.2621 48.5917 78.9429C48.8052 78.5135 49.3388 78.3418 49.7835 78.5479C50.2282 78.7539 50.415 79.2692 50.1927 79.6985C48.992 82.0943 48.2982 85.2887 51.7936 86.9374C53.866 87.9163 59.8339 86.3191 63.107 85.0826C63.5606 84.9108 64.0765 85.1255 64.2543 85.572C64.4322 86.01 64.2099 86.508 63.7474 86.6798C63.0003 86.9631 57.5837 88.9467 53.6614 88.9467H53.6703Z" fill="black"/>
<path d="M60.2901 93.4895C60.0766 93.4895 59.8631 93.4895 59.6586 93.4723C55.2471 93.1718 52.143 90.0375 51.8495 88.8182C51.7072 88.2343 52.0007 87.8221 52.3209 87.6417C52.7478 87.4013 53.2903 87.5387 53.5394 87.9509C53.655 88.1398 53.6906 88.3545 53.6461 88.552C54.0908 89.3334 56.4033 91.5317 59.792 91.7635C62.8783 91.9696 67.9657 90.1406 68.0102 90.1148C68.4727 89.9431 68.9797 90.1749 69.1575 90.6129C69.3354 91.0594 69.0953 91.5488 68.6417 91.7206C68.4282 91.7979 63.741 93.4895 60.2901 93.4895Z" fill="black"/>
<path d="M65.0757 96.6589C61.8294 96.6589 59.3034 95.0961 58.8587 92.769C58.7698 92.3053 59.09 91.8588 59.5702 91.7643C60.0505 91.6785 60.513 91.9876 60.6109 92.4513C60.9133 94.0141 62.8878 95.036 65.4226 94.9243C68.4199 94.8041 71.106 93.8767 71.1327 93.8681C71.5952 93.705 72.1021 93.9368 72.2711 94.3834C72.4401 94.8299 72.2 95.3193 71.7375 95.4825C71.6129 95.5254 68.7579 96.5044 65.4938 96.6417C65.3514 96.6417 65.218 96.6417 65.0757 96.6417V96.6589Z" fill="black"/>
<path d="M70.6065 98.7524C66.5329 98.7524 64.7986 96.3824 64.7185 96.2707C64.4428 95.8757 64.5406 95.3433 64.9498 95.0772C65.3589 94.811 65.9104 94.914 66.1861 95.3004C66.2483 95.3777 67.787 97.3956 71.6115 96.9749C78.4956 96.2364 85.353 91.2216 85.4242 91.1701C85.8155 90.8867 86.3758 90.9554 86.6693 91.3332C86.9717 91.711 86.8917 92.252 86.5003 92.5354C86.2068 92.7501 79.1804 97.8937 71.8072 98.6837C71.3803 98.7266 70.98 98.7524 70.5976 98.7524H70.6065Z" fill="black"/>
<path d="M43.0976 69.7018L49.9462 63.0898L41.6568 55.2498C38.7306 52.4848 34.7549 51.025 30.6636 51.214C32.1311 48.1055 31.473 44.4474 29.0004 42.0087L26.092 39.1406L17.2423 44.5934L43.0976 69.7104V69.7018Z" fill="white"/>
<path d="M43.0948 70.5619C42.8546 70.5619 42.6323 70.4674 42.4633 70.3129L16.6079 45.1959C16.4212 45.0156 16.3233 44.7579 16.3589 44.4917C16.3856 44.2341 16.5368 44.0023 16.768 43.8649L25.6177 38.4121C25.9735 38.1975 26.436 38.2404 26.7295 38.5324L29.6379 41.4004C32.0304 43.7618 32.8843 47.2224 31.9504 50.3395C35.8016 50.4769 39.5104 52.0054 42.2854 54.633L50.5748 62.4729C50.7437 62.6361 50.8416 62.8508 50.8416 63.0826C50.8416 63.3145 50.7526 63.5291 50.5837 63.6923L43.7351 70.3043C43.5662 70.4674 43.3438 70.5533 43.1037 70.5533L43.0948 70.5619ZM18.6447 44.7408L43.0948 68.4924L48.6803 63.1084L41.0313 55.8781C38.2919 53.2934 34.5208 51.9023 30.7052 52.0827C30.3761 52.0998 30.1004 51.9539 29.9225 51.7048C29.7446 51.4558 29.7179 51.1381 29.8514 50.8633C31.1588 48.0983 30.5629 44.7837 28.3571 42.6112L25.9468 40.2412L18.6358 44.7408H18.6447Z" fill="black"/>
<path d="M38.8428 72.1568C39.5988 71.59 40.5594 72.0623 40.7817 71.1263C41.0041 70.156 31.5763 62.1443 29.9397 60.8648C28.3744 59.6455 26.9068 58.2802 24.9412 57.6791C23.109 57.1209 20.9922 57.4987 19.7381 58.9757C19.3468 59.4394 19.0622 59.989 18.9021 60.5729C18.6175 60.779 18.4574 61.1139 18.5819 61.5346C18.6619 61.7837 18.742 62.0327 18.8309 62.2731C18.911 62.6853 19.0711 63.0803 19.3112 63.4409C20.9122 67.0303 23.7316 70.0701 27.3693 71.8562C30.7046 73.4877 35.6053 74.5869 38.8339 72.1653L38.8428 72.1568Z" fill="white"/>
<path d="M17.5179 57.3126C17.26 55.9473 17.1088 54.5562 17.1177 53.1651C17.1266 50.6835 17.7136 48.2018 19.8482 46.6047C20.9333 45.7975 22.303 45.3424 23.5215 46.1839C24.8734 47.1199 24.7311 48.3392 24.0996 49.5672C23.6727 50.4001 23.1568 51.2073 22.8188 52.0832C23.4414 51.5937 24.1441 51.2245 24.9534 51.0441C26.2075 50.7693 27.6573 51.0957 28.3421 52.2206C28.9825 53.2682 28.5378 54.2557 27.8796 55.1315C28.182 55.08 28.4844 55.0886 28.7957 55.1659C30.0142 55.4836 30.6635 56.6515 30.6279 57.8193C30.6012 58.6694 30.2188 59.3907 29.8185 60.112C30.6279 59.8286 31.5173 59.9145 32.131 60.6358C32.8781 61.5117 32.8959 62.8083 32.5402 63.8388C32.3801 64.2853 32.1399 64.6889 31.9176 65.1097C31.6863 65.5648 31.1171 66.3891 30.8858 66.8442C30.3611 67.8918 30.1832 68.5273 30.1921 69.6092C30.1921 69.9785 29.6585 70.0901 29.3649 70.2447C31.3483 73.3017 30.5923 73.2673 30.3255 73.3618C29.9697 73.4992 27.177 72.0995 26.0207 71.902C24.8645 71.7045 21.4225 67.7888 19.359 64.2338C18.2383 62.3017 17.7225 59.5109 17.5268 57.2869L17.5179 57.3126Z" fill="white"/>
<path d="M33.0247 74.0478C28.9156 74.0478 24.255 72.8714 21.1421 68.4749C16.8818 62.4726 15.6099 56.0495 15.8679 53.9371C16.1614 51.6014 16.5171 48.6818 19.2832 46.2002C20.4128 45.1869 23.1077 44.6116 24.2995 45.8052C25.5536 47.0675 25.6781 49.8582 22.9743 52.9925C22.663 53.3532 22.1027 53.4047 21.7202 53.1041C21.3467 52.8036 21.2933 52.2626 21.6046 51.8934C23.6147 49.5577 23.6325 47.6256 23.0099 46.9902C22.6897 46.6725 21.1065 46.8957 20.4928 47.4539C18.207 49.5148 17.9135 51.8676 17.6289 54.1432C17.4332 55.7318 18.5806 61.8371 22.6007 67.5045C28.4887 75.7996 40.9939 70.9222 41.1184 70.8706C41.572 70.6903 42.0967 70.8964 42.2835 71.3343C42.4703 71.7723 42.2568 72.2703 41.8032 72.4592C41.7321 72.485 37.7386 74.0478 33.0158 74.0478H33.0247Z" fill="black"/>
<path d="M19.1102 63.9596C18.7366 63.9596 18.3898 63.7278 18.2652 63.3671C16.8955 59.2625 18.6744 54.7028 21.1469 52.3156C22.4811 51.0276 24.1799 50.332 25.8431 50.4265C27.026 50.4866 28.0666 50.9503 28.6892 51.7059C29.8632 53.1056 29.1606 54.9862 28.5558 55.8706C28.289 56.2656 27.7375 56.3773 27.3284 56.1197C26.9193 55.8621 26.8036 55.3297 27.0705 54.9347C27.0882 54.9089 27.951 53.5522 27.3106 52.7793C27.0082 52.4101 26.4212 52.1782 25.7541 52.1439C24.6157 52.0838 23.3883 52.5904 22.4099 53.535C20.3732 55.5014 18.8167 59.4343 19.964 62.8433C20.1152 63.2984 19.8573 63.7793 19.3948 63.9253C19.3059 63.951 19.208 63.9682 19.1191 63.9682L19.1102 63.9596Z" fill="black"/>
<path d="M20.7955 66.9814C20.3419 66.9814 19.9594 66.6465 19.915 66.2086C19.4436 61.5458 22.5565 57.6817 25.3671 55.7925C26.9058 54.7535 28.2132 54.3757 29.3428 54.6247C30.2144 54.8222 30.9259 55.3804 31.4596 56.2906C32.5714 58.2055 29.6897 61.3913 28.7825 62.3187C28.4445 62.6621 27.8841 62.6793 27.5284 62.353C27.1726 62.0267 27.1548 61.4857 27.4928 61.1422C29.0226 59.5708 30.2055 57.6302 29.912 57.1321C29.6363 56.6512 29.3161 56.385 28.9514 56.2992C28.3555 56.1704 27.4661 56.4795 26.3899 57.2008C23.9707 58.8238 21.2936 62.1212 21.6938 66.0454C21.7383 66.5177 21.3825 66.9385 20.8933 66.9814C20.8666 66.9814 20.8311 66.9814 20.8044 66.9814H20.7955Z" fill="black"/>
<path d="M30.5072 70.1588C30.2137 70.1588 29.9291 70.0214 29.7512 69.7724C29.6267 69.5921 28.5861 67.9777 30.5961 65.3072C31.8324 63.6585 32.2327 62.0012 31.8324 61.4945C31.788 61.443 31.4855 61.2198 30.8807 61.2455C30.2493 61.2627 29.2531 61.5804 28.1413 62.9715C25.7755 65.9083 25.4375 67.3423 25.4197 68.45C25.4197 68.9223 24.9839 69.3001 24.5125 69.2916C24.0233 69.2916 23.632 68.8965 23.6409 68.4157C23.6765 66.4922 24.5659 64.603 26.7361 61.9067C28.3192 59.9317 29.9024 59.5195 30.9519 59.5195H30.9608C31.9036 59.5195 32.8019 59.8888 33.2466 60.4469C34.4562 61.9754 33.3533 64.5601 32.037 66.3119C30.7829 67.9777 31.2365 68.8279 31.2454 68.8364C31.5211 69.2314 31.4055 69.7467 31.0053 70.0129C30.8541 70.1159 30.6851 70.1588 30.5161 70.1588H30.5072Z" fill="black"/>
<path d="M95.0675 70.4415C104.442 67.6765 114.288 66.7491 124.036 67.7108L128.59 68.1574L120.167 48.5532C117.374 42.0443 109.778 38.7984 102.912 41.1684C97.1131 43.1692 93.4042 48.6563 93.8579 54.5899L95.0675 70.4415Z" fill="#FFB000"/>
<path d="M98.2207 72.441C97.8115 72.441 97.4469 72.1662 97.349 71.7627L94.5919 59.5777C94.4851 59.114 94.7875 58.6589 95.2678 58.5558C95.7481 58.4528 96.2195 58.7448 96.3262 59.2085L99.0834 71.3934C99.1901 71.8571 98.8877 72.3122 98.4075 72.4153C98.3452 72.4324 98.2829 72.4324 98.2207 72.4324V72.441Z" fill="black"/>
</g>
<defs>
<clipPath id="clip0_0_575">
<rect width="219" height="200" fill="white"/>
</clipPath>
</defs>
</svg>
