<svg width="268" height="200" viewBox="0 0 268 200" fill="none" xmlns="http://www.w3.org/2000/svg">
<g clip-path="url(#clip0_0_512)">
<path d="M228.819 91.5721C228.819 89.8192 228.73 88.0931 228.588 86.3759C210.955 88.8227 192.939 97.6758 188.478 96.9373C181.469 95.7717 186.144 79.0354 187.311 70.8585C188.478 62.6816 184.586 60.3504 184.586 60.3504C184.586 60.3504 177.185 57.2363 165.11 50.2339C153.034 43.2315 139.4 36.2202 140.958 50.6254C142.517 65.0306 167.835 76.7042 167.835 76.7042C167.835 76.7042 158.876 94.6061 152.25 112.508C145.981 129.467 173.258 146.426 186.75 151.809C211.302 142.795 228.819 119.235 228.819 91.581V91.5721Z" fill="#1D0532"/>
<path d="M59.0025 92.4915C77.9326 92.4915 93.2785 77.1592 93.2785 58.2458C93.2785 39.3324 77.9326 24 59.0025 24C40.0724 24 24.7266 39.3324 24.7266 58.2458C24.7266 77.1592 40.0724 92.4915 59.0025 92.4915Z" fill="#FFB000"/>
<path d="M93.4522 92.656L76.1059 88.0126L58.7656 83.3692L71.4584 70.6876L84.1572 58L88.8047 75.331L93.4522 92.656Z" fill="#FFB000"/>
<path d="M193.427 141.75C224.542 138.44 222.476 132.701 249.023 123.536C270.467 116.133 269.755 76.2723 232.646 75.338C213.027 74.8398 210.596 67.3658 210.463 66.6985C206.357 45.7624 185.661 32.2826 164.68 37.2385C145.827 41.6962 133.288 60.052 136.022 79.2174C138.489 96.4965 152.114 109.113 168.295 111.32C168.393 111.987 168.5 112.655 168.634 113.322C171.314 127.015 181.11 137.514 193.435 141.75H193.427Z" fill="#1D0532"/>
<path d="M267.108 92.4791C266.761 92.4791 266.432 92.2745 266.289 91.9364C258.328 73.0557 248.781 70.0572 236.91 71.3741C216.054 73.6785 213.052 65.0924 212.937 64.7276C209.945 55.3495 203.479 47.7065 194.725 43.1865C185.98 38.6754 175.988 37.8302 166.611 40.8198C166.139 40.971 165.64 40.713 165.489 40.2414C165.337 39.7698 165.595 39.2716 166.067 39.1203C175.899 35.9884 186.372 36.8692 195.544 41.6027C204.717 46.3363 211.494 54.353 214.629 64.1848C214.655 64.256 217.336 71.7478 236.714 69.6034C254.24 67.6727 261.872 76.855 267.937 91.2424C268.124 91.6962 267.919 92.2211 267.465 92.408C267.349 92.4524 267.233 92.4791 267.117 92.4791H267.108Z" fill="#1D0532"/>
<path d="M224.46 176.654L200.086 113.445C197.111 105.722 189.871 100.472 181.598 100.028L167.964 99.2891C157.927 102.688 149.823 110.215 145.7 119.967L145.486 120.483L110.586 199.12H208.189C219.856 199.12 228.102 187.731 224.46 176.663V176.654Z" fill="white"/>
<path d="M208.19 199.998H110.578C110.275 199.998 109.999 199.847 109.83 199.598C109.67 199.349 109.643 199.029 109.759 198.753L144.659 120.116L144.873 119.618C149.094 109.634 157.403 101.92 167.671 98.4413C167.778 98.4057 167.893 98.3879 168.009 98.3968L181.643 99.1353C190.246 99.598 197.816 105.088 200.915 113.122L225.289 176.331C225.289 176.331 225.298 176.357 225.307 176.375C227.132 181.927 226.215 187.826 222.786 192.56C219.358 197.294 214.032 200.007 208.19 200.007V199.998ZM111.949 198.219H208.19C213.462 198.219 218.254 195.772 221.344 191.51C224.434 187.248 225.262 181.945 223.623 176.954L199.249 113.763C196.4 106.378 189.453 101.333 181.545 100.906L168.08 100.176C158.364 103.513 150.51 110.845 146.511 120.303L146.298 120.819L111.94 198.219H111.949Z" fill="#1D0532"/>
<path d="M126.518 198.415H151.614C151.614 198.415 153.617 191.297 151.614 187.382C149.61 183.468 138.897 177.773 131.87 180.62C124.844 183.468 126.518 198.415 126.518 198.415Z" fill="white"/>
<path d="M151.625 199.306H126.53C126.075 199.306 125.692 198.968 125.648 198.514C125.577 197.874 123.983 182.855 131.552 179.794C136.076 177.961 141.277 179.536 143.984 180.639C147.92 182.25 151.313 184.794 152.427 186.974C154.573 191.156 152.578 198.354 152.489 198.657C152.382 199.039 152.035 199.306 151.634 199.306H151.625ZM127.349 197.527H150.93C151.349 195.738 152.32 190.693 150.832 187.784C148.989 184.189 138.783 178.779 132.211 181.44C126.761 183.646 127.126 194.484 127.34 197.527H127.349Z" fill="#1D0532"/>
<path d="M65.7656 192.66H150.251C153.644 192.66 156.396 195.41 156.396 198.799V199.805H65.7656V192.66Z" fill="#1D0532"/>
<path d="M100.934 199.794H18.5229L0.418212 145.109C-1.32725 139.824 2.60895 134.379 8.17484 134.379H73.3715C76.898 134.379 80.0238 136.639 81.1281 139.975L100.934 199.785V199.794Z" fill="#1D0532"/>
<path d="M151.076 185.781C150.684 185.781 150.328 185.523 150.221 185.131C150.088 184.659 150.364 184.17 150.844 184.037L193.021 172.345L179.885 128.133C179.743 127.661 180.01 127.163 180.482 127.03C180.954 126.887 181.452 127.163 181.586 127.626L194.98 172.71C195.051 172.941 195.024 173.182 194.909 173.395C194.793 173.6 194.597 173.76 194.365 173.822L151.316 185.763C151.236 185.781 151.156 185.798 151.076 185.798V185.781Z" fill="#1D0532"/>
<path d="M154.562 184.331C154.562 184.331 154.491 184.331 154.455 184.331C153.966 184.277 153.618 183.832 153.672 183.343L155.373 168.822L153.494 167.737C147.741 164.418 144.357 158.234 144.642 151.605L145.47 132.636C145.488 132.146 145.888 131.773 146.396 131.781C146.886 131.799 147.269 132.217 147.251 132.707L146.423 151.676C146.165 157.638 149.21 163.199 154.384 166.188L156.771 167.568C157.074 167.745 157.252 168.092 157.207 168.439L155.435 183.539C155.382 183.992 154.999 184.322 154.553 184.322L154.562 184.331Z" fill="#1D0532"/>
<path d="M117.343 174.137L114.965 173.888C112.943 173.674 110.895 173.772 108.9 174.172L99.1133 176.13C97.1363 176.521 96.2814 178.879 97.5549 180.454C98.864 182.064 100.823 182.999 102.898 182.999L114.769 180.997L117.343 174.146V174.137Z" fill="white"/>
<path d="M102.902 183.879C100.551 183.879 98.3423 182.829 96.864 181.005C96.0714 180.027 95.8488 178.728 96.2762 177.544C96.7037 176.361 97.7011 175.498 98.939 175.258L108.726 173.3C110.819 172.882 112.947 172.784 115.058 173.006L117.436 173.256C117.712 173.282 117.952 173.442 118.103 173.674C118.246 173.905 118.273 174.199 118.184 174.457L115.61 181.308C115.503 181.602 115.236 181.824 114.924 181.877L103.053 183.879C103.009 183.879 102.955 183.888 102.902 183.888V183.879ZM112.858 174.661C111.594 174.661 110.329 174.786 109.082 175.035L99.2952 176.993C98.6718 177.117 98.1731 177.544 97.9594 178.14C97.7456 178.737 97.8525 179.386 98.2532 179.884C99.3842 181.272 101.05 182.082 102.831 182.1L114.123 180.196L116.109 174.893L114.88 174.759C114.212 174.688 113.535 174.653 112.858 174.653V174.661Z" fill="#1D0532"/>
<path d="M121.921 175.273L117.895 174.268C116.141 173.832 114.289 174.357 113.024 175.647L102.533 186.386C101.162 187.872 101.866 190.275 103.816 190.8C105.82 191.333 107.957 190.942 109.64 189.723L117.067 180.986L121.929 175.273H121.921Z" fill="white"/>
<path d="M105.597 191.929C104.92 191.929 104.244 191.84 103.576 191.662C102.356 191.333 101.421 190.416 101.064 189.206C100.717 187.996 101.011 186.715 101.875 185.789L112.383 175.032C113.862 173.52 116.052 172.897 118.109 173.413L122.135 174.418C122.437 174.489 122.669 174.721 122.767 175.005C122.865 175.299 122.794 175.619 122.598 175.851L110.308 190.3C110.264 190.354 110.21 190.398 110.157 190.443C108.812 191.421 107.218 191.929 105.597 191.929ZM116.667 175.005C115.554 175.005 114.458 175.45 113.657 176.269L103.166 187.008C102.756 187.453 102.605 188.094 102.774 188.708C102.943 189.322 103.424 189.775 104.039 189.944C105.758 190.407 107.565 190.087 109.026 189.064L120.318 175.788L117.682 175.13C117.344 175.05 117.005 175.005 116.667 175.005Z" fill="#1D0532"/>
<path d="M131.774 177.419L125.318 175.123C123.563 174.687 121.711 175.212 120.446 176.502L112.244 186.388C110.873 187.874 111.576 190.276 113.527 190.801C115.53 191.335 117.668 190.943 119.351 189.724L126.351 182.419L131.783 177.419H131.774Z" fill="white"/>
<path d="M115.32 191.929C114.643 191.929 113.966 191.84 113.299 191.662C112.079 191.333 111.143 190.417 110.787 189.207C110.431 187.997 110.734 186.715 111.589 185.79L119.764 175.94C121.287 174.374 123.486 173.752 125.535 174.268L132.071 176.581C132.365 176.688 132.579 176.937 132.641 177.239C132.703 177.542 132.606 177.862 132.374 178.076L126.942 183.076L119.978 190.346C119.978 190.346 119.897 190.417 119.862 190.452C118.517 191.431 116.923 191.938 115.302 191.938L115.32 191.929ZM124.101 175.851C123.005 175.851 121.892 176.296 121.091 177.124L112.933 186.956C112.47 187.454 112.319 188.103 112.497 188.708C112.675 189.313 113.147 189.776 113.762 189.945C115.489 190.408 117.306 190.079 118.766 189.055L125.713 181.804L130.103 177.764L125.036 175.967C124.733 175.896 124.421 175.86 124.11 175.86L124.101 175.851Z" fill="#1D0532"/>
<path d="M145.074 182.136L132.455 177.581C130.879 177.189 129.214 177.661 128.083 178.817L120.727 187.679C119.498 189.014 120.121 191.167 121.876 191.639C123.674 192.119 125.589 191.763 127.094 190.669L131.636 185.277L145.074 182.136Z" fill="white"/>
<path d="M123.484 192.741C122.87 192.741 122.255 192.66 121.65 192.5C120.527 192.198 119.655 191.352 119.334 190.231C119.014 189.11 119.29 187.936 120.073 187.082L127.402 178.255C128.801 176.823 130.804 176.253 132.674 176.725C132.701 176.725 132.737 176.743 132.763 176.752L145.382 181.307C145.846 181.476 146.086 181.983 145.917 182.446C145.748 182.909 145.24 183.149 144.777 182.98L132.202 178.442C130.956 178.148 129.629 178.531 128.729 179.448L121.418 188.256C121.017 188.692 120.893 189.217 121.044 189.742C121.195 190.258 121.587 190.65 122.113 190.783C123.618 191.183 125.212 190.908 126.494 190.018L130.956 184.706C131.276 184.332 131.837 184.279 132.211 184.599C132.585 184.92 132.639 185.48 132.318 185.854L127.776 191.246C127.732 191.299 127.678 191.352 127.616 191.397C126.396 192.287 124.945 192.749 123.475 192.749L123.484 192.741Z" fill="#1D0532"/>
<path d="M50.9799 168.372C50.9799 171.575 48.3795 174.173 45.1735 174.173C41.9676 174.173 39.3672 171.575 39.3672 168.372C39.3672 165.168 41.9676 162.57 45.1735 162.57C48.3795 162.57 50.9799 165.168 50.9799 168.372Z" fill="white"/>
<path d="M45.1813 175.062C41.4944 175.062 38.4844 172.063 38.4844 168.371C38.4844 164.678 41.4855 161.68 45.1813 161.68C48.877 161.68 51.8781 164.678 51.8781 168.371C51.8781 172.063 48.877 175.062 45.1813 175.062ZM45.1813 163.468C42.474 163.468 40.2655 165.675 40.2655 168.38C40.2655 171.084 42.4651 173.291 45.1813 173.291C47.8974 173.291 50.0971 171.084 50.0971 168.38C50.0971 165.675 47.8885 163.468 45.1813 163.468Z" fill="#1D0532"/>
<path d="M161.684 95.4705C161.301 95.4705 160.963 95.2035 160.891 94.8209C160.802 94.385 161.087 93.9579 161.532 93.8689L174.187 91.3954C176.672 90.906 179.041 90.0429 181.24 88.824C181.632 88.6104 182.122 88.7439 182.344 89.1354C182.558 89.5269 182.425 90.0162 182.033 90.2387C179.691 91.5466 177.153 92.472 174.508 92.988L161.853 95.4616C161.8 95.4705 161.746 95.4794 161.693 95.4794L161.684 95.4705Z" fill="#080717"/>
<path d="M170.919 36.2989C189.167 35.0799 205.927 47.234 210.157 65.3495C206.666 68.8018 202.088 71.3198 196.825 72.3519C183.138 75.0301 169.975 66.6486 167.429 53.6403C166.217 47.4387 167.633 41.3171 170.919 36.2989Z" fill="#1D0532"/>
<path d="M153.997 96.7013L162.814 116.641C162.814 116.641 172.405 117.593 183.644 104.042C184.089 103.508 160.026 68.9408 160.026 68.9408L143.961 59.1445L153.997 96.7102V96.7013Z" fill="white"/>
<path d="M163.282 117.547C162.97 117.547 162.783 117.53 162.73 117.53C162.409 117.494 162.133 117.298 161.999 117.005L153.183 97.0652C153.183 97.0652 153.147 96.9762 153.139 96.9317L143.102 59.3661C143.004 59.0102 143.138 58.6454 143.432 58.423C143.725 58.2094 144.117 58.1827 144.429 58.3785L160.494 68.1747C160.601 68.237 160.69 68.326 160.762 68.4239C160.824 68.5128 166.844 77.1702 172.739 85.7831C185.038 103.756 184.913 103.899 184.334 104.601C174.307 116.693 165.535 117.539 163.282 117.539V117.547ZM154.848 96.4068L163.406 115.759C165.437 115.706 173.443 114.745 182.633 103.872C180.923 100.74 168.1 82.0728 159.417 69.5895L145.409 61.0478L154.848 96.4068Z" fill="#1D0532"/>
<path d="M144.456 55.6719C144.456 55.6719 134.331 81.3592 134.714 87.5875C135.106 93.8158 134.714 104.324 162.766 94.9814L144.456 55.6719Z" fill="white"/>
<path d="M145.071 99.5705C141.945 99.5705 139.505 98.9744 137.742 97.7732C134.269 95.4242 134.037 91.2869 133.868 88.2706L133.832 87.6389C133.432 81.286 143.219 56.3994 143.628 55.3406C143.806 54.8868 144.323 54.6555 144.786 54.8423C145.24 55.0203 145.472 55.5363 145.285 55.999C145.187 56.257 135.23 81.5707 135.604 87.5321L135.64 88.1727C135.809 91.1089 135.996 94.4455 138.739 96.2962C142.506 98.8498 150.494 98.1202 162.481 94.1341C162.953 93.9739 163.452 94.232 163.603 94.6946C163.755 95.1573 163.505 95.6645 163.042 95.8246C155.535 98.3249 149.577 99.5705 145.062 99.5705H145.071Z" fill="#1D0532"/>
<path d="M187.069 72.4205C187.158 71.8689 187.248 71.3439 187.319 70.8546C188.485 62.6777 184.594 60.3465 184.594 60.3465C184.594 60.3465 177.193 57.2324 165.118 50.23C153.042 43.2276 139.408 36.2163 140.966 50.6214C142.524 65.0266 167.843 76.7003 167.843 76.7003C167.843 76.7003 166.329 78.3463 164.031 81.1224C172.758 80.2593 180.702 77.1274 187.069 72.4294V72.4205Z" fill="#1D0532"/>
<path d="M150.221 76.0945C150.818 74.5908 150.551 73.0694 149.616 72.7045C148.681 72.3309 147.443 73.2473 146.837 74.751C146.232 76.2547 146.508 77.7762 147.443 78.141C148.378 78.5147 149.616 77.5982 150.221 76.0945Z" fill="#1D0532"/>
<path d="M140.963 73.7078C141.56 72.2041 141.293 70.6826 140.358 70.3178C139.423 69.9441 138.185 70.8606 137.579 72.3643C136.974 73.868 137.25 75.3895 138.185 75.7543C139.12 76.128 140.358 75.2115 140.963 73.7078Z" fill="#1D0532"/>
<path d="M147.488 90.4712C147.078 90.4712 146.642 90.4178 146.188 90.2843C145.716 90.1509 145.431 89.6615 145.564 89.1899C145.698 88.7183 146.188 88.4336 146.66 88.5671C149.883 89.4568 151.326 84.8924 151.388 84.6966C151.531 84.2251 152.03 83.967 152.502 84.1094C152.974 84.2518 153.232 84.75 153.089 85.2216C152.493 87.1791 150.614 90.4712 147.488 90.4712Z" fill="#1D0532"/>
<path d="M142.699 82.7483C142.646 82.7483 142.583 82.7483 142.53 82.7305C141.176 82.4725 139.939 81.7429 139.057 80.6841C138.799 80.3726 138.781 79.9189 139.021 79.5896C139.689 78.6643 141.444 76.0751 142.575 74.1888C142.61 74.1265 143.679 72.5161 143.162 71.1636C142.815 70.265 141.809 69.5977 140.161 69.1884C139.68 69.0727 139.395 68.5833 139.511 68.1118C139.627 67.6313 140.108 67.3377 140.589 67.4622C142.842 68.0228 144.267 69.0638 144.828 70.5408C145.674 72.7741 144.133 75.0519 144.071 75.1498C143.189 76.6268 141.782 78.7355 140.891 80.0167C141.452 80.4972 142.147 80.8442 142.868 80.9777C143.349 81.0667 143.67 81.5382 143.572 82.0187C143.492 82.4458 143.118 82.7394 142.699 82.7394V82.7483Z" fill="#080717"/>
<path d="M202.796 92.99C173.969 101.941 180.595 84.0391 180.595 84.0391C180.595 84.0391 174.361 90.2674 168.911 89.4844C168.911 89.4844 159.56 99.6009 168.136 106.221C176.703 112.841 197.301 109.54 209.876 106.523C216.315 104.975 222.183 104.655 227.393 105.046C228.239 101.105 228.711 97.0206 228.791 92.8477C221.542 90.4275 212.859 89.8759 202.805 92.99H202.796Z" fill="#1D0532"/>
<path d="M163.195 79.1007C165.039 75.7018 169.296 74.4383 172.697 76.2801C176.099 78.1219 177.364 82.375 175.52 85.7739C173.677 89.1727 169.42 90.4362 166.018 88.5944L163.195 79.1007Z" fill="white"/>
<path d="M169.353 90.3289C168.079 90.3289 166.797 90.0263 165.604 89.3768C165.167 89.1455 165.007 88.6027 165.247 88.1668C165.479 87.7397 166.022 87.5706 166.458 87.8109C169.424 89.4213 173.146 88.3091 174.758 85.3462C176.37 82.3833 175.257 78.6641 172.292 77.0537C169.326 75.4521 165.604 76.5554 163.992 79.5183C163.76 79.9543 163.217 80.1144 162.781 79.8742C162.344 79.6429 162.184 79.1001 162.424 78.6641C164.499 74.8382 169.308 73.4146 173.138 75.4877C176.967 77.5608 178.392 82.3655 176.317 86.1915C174.883 88.8252 172.167 90.32 169.353 90.32V90.3289Z" fill="#1D0532"/>
<path d="M48.7801 57.9984C48.7801 59.9878 47.1742 61.5984 45.1908 61.5984C43.2075 61.5984 41.6016 59.9878 41.6016 57.9984C41.6016 56.0091 43.2075 54.3984 45.1908 54.3984C47.1742 54.3984 48.7801 56.0091 48.7801 57.9984Z" fill="white"/>
<path d="M62.3426 57.9984C62.3426 59.9878 60.7367 61.5984 58.7533 61.5984C56.77 61.5984 55.1641 59.9878 55.1641 57.9984C55.1641 56.0091 56.77 54.3984 58.7533 54.3984C60.7367 54.3984 62.3426 56.0091 62.3426 57.9984Z" fill="white"/>
<path d="M75.9051 57.9984C75.9051 59.9878 74.2992 61.5984 72.3158 61.5984C70.3325 61.5984 68.7266 59.9878 68.7266 57.9984C68.7266 56.0091 70.3325 54.3984 72.3158 54.3984C74.2992 54.3984 75.9051 56.0091 75.9051 57.9984Z" fill="white"/>
</g>
<defs>
<clipPath id="clip0_0_512">
<rect width="268" height="200" fill="white"/>
</clipPath>
</defs>
</svg>
