<svg width="205" height="200" viewBox="0 0 205 200" fill="none" xmlns="http://www.w3.org/2000/svg">
<g clip-path="url(#clip0_0_673)">
<path d="M0.594988 53.741L33.4257 129.394C34.672 132.271 37.6768 133.99 40.8011 133.607L86.5729 128.033C91.2935 127.454 94.1276 122.501 92.2154 118.161L63.2004 52.3028C62.159 49.9286 59.8969 48.3202 57.3018 48.099L7.70575 43.878C2.35347 43.427 -1.54763 48.8223 0.586451 53.741H0.594988Z" fill="black"/>
<path d="M40.1517 130.212C38.931 129.991 37.9066 129.182 37.4201 128.05L4.58933 52.3973C3.83814 50.6613 4.61494 49.2912 4.98201 48.7806C5.34907 48.27 6.41611 47.0957 8.30264 47.2573L57.8902 51.4783C58.0097 51.4868 58.1207 51.5038 58.2402 51.5208C59.4523 51.7421 60.4682 52.542 60.9633 53.6653L89.9783 119.524C90.4563 120.604 90.388 121.804 89.8075 122.834C89.2271 123.855 88.2112 124.527 87.0418 124.672L41.27 130.246C40.9029 130.289 40.5273 130.28 40.1602 130.212H40.1517Z" fill="#FFB000"/>
<path d="M106.918 115.921L94.4552 104.645L84.775 89.5741C83.2299 87.1743 80.6007 85.668 77.741 85.5404L68.6755 85.1489L66.9767 82.5278C66.9511 82.4853 66.917 82.4427 66.8743 82.4002L62.8025 78.1537L59.994 75.0306C59.3111 74.2732 58.3038 73.9328 57.2965 74.1286C56.2892 74.3243 55.4783 75.0051 55.1283 75.9667C54.4198 77.8984 54.6929 80.06 55.871 81.7449L65.6365 95.8118L59.3367 91.5484C58.6538 91.0888 57.8343 90.9016 57.0148 91.0292C55.8454 91.208 54.8978 91.9739 54.471 93.0716C54.0442 94.1694 54.2405 95.3693 55.0173 96.3224L63.1439 105.173C66.1316 108.424 69.9303 110.857 74.1387 112.219L75.7691 112.747L82.436 114.406L91.2114 128.669L94.5235 133.902C94.6771 134.149 94.9503 134.302 95.2405 134.302C95.5308 134.302 95.8039 134.157 95.9576 133.911L107.046 117.036C107.277 116.687 107.217 116.21 106.901 115.929L106.918 115.921Z" fill="white"/>
<path d="M204.997 200L201.726 180.967C200.061 171.264 195.432 162.344 188.514 155.472L176.967 144L140.559 182.048L136.664 200H204.997Z" fill="#FFB000"/>
<path d="M38.8972 142.584L26.6817 116.603L11.2053 103.898C8.90049 102 7.86759 98.9709 8.54196 96.069L8.78098 95.0308L7.2103 92.9714C5.68229 90.9631 5.37498 88.2825 6.41642 85.9848L7.36395 83.8914L6.80055 83.134C5.00792 80.7342 4.61525 77.56 5.77619 74.7943L8.48221 68.3438L12.7333 79.7045L27.0146 91.1673L23.0623 81.1427C22.3452 79.33 22.6611 77.2792 23.8903 75.7644C25.0768 74.3007 27.356 74.4964 28.2865 76.1303L34.4668 87.0571C36.857 91.278 38.3167 95.9584 38.7435 100.784L39.8874 113.548L60.1868 129.828L38.9057 142.584H38.8972Z" fill="white"/>
<path d="M38.8972 143.442C38.8119 143.442 38.7265 143.434 38.6497 143.408C38.4192 143.34 38.2228 143.17 38.1204 142.949L25.9903 117.147L10.6676 104.561C8.08959 102.442 6.95426 99.1143 7.714 95.8721L7.85911 95.2338L6.52745 93.4978C4.80311 91.2427 4.46165 88.2302 5.63113 85.6431L6.37379 84.0092L6.10917 83.6603C4.13727 81.0223 3.71046 77.5077 4.97383 74.4781L7.67985 68.0276C7.81643 67.7042 8.14081 67.5085 8.4908 67.5C8.84079 67.5 9.15664 67.7298 9.28468 68.0617L13.4504 79.2096L25.0171 88.494L22.2514 81.4818C21.4233 79.3884 21.7904 77.0056 23.2074 75.2525C23.9416 74.342 25.0769 73.8569 26.2464 73.959C27.4158 74.0526 28.4487 74.7164 29.0292 75.7376L35.2095 86.6643C37.6765 91.0214 39.1533 95.7529 39.5972 100.74L40.7069 113.139L60.7246 129.188C60.9466 129.367 61.0661 129.639 61.0405 129.912C61.0234 130.193 60.8697 130.448 60.6222 130.593L39.3411 143.349C39.2045 143.425 39.0509 143.468 38.8972 143.468V143.442ZM8.42251 70.6827L6.56159 75.1249C5.5287 77.6013 5.87869 80.4691 7.48352 82.6221L8.04691 83.3795C8.23471 83.6348 8.26886 83.9582 8.14081 84.2475L7.19328 86.341C6.27989 88.3493 6.54452 90.6895 7.88472 92.4511L9.45541 94.5105C9.60906 94.7147 9.66882 94.9785 9.60906 95.2253L9.37004 96.2635C8.76396 98.8675 9.67735 101.54 11.7431 103.233L27.2195 115.938C27.3219 116.024 27.3988 116.117 27.45 116.236L39.2557 141.358L58.6588 129.724L39.3155 114.219C39.1362 114.075 39.0167 113.862 38.9996 113.624L37.8558 100.859C37.429 96.1188 36.029 91.6171 33.6815 87.4813L27.5012 76.5545C27.2024 76.0269 26.6817 75.695 26.0756 75.644C25.4696 75.5844 24.9062 75.8312 24.522 76.3078C23.4891 77.5757 23.2245 79.3118 23.8221 80.835L27.7744 90.8597C27.9195 91.2256 27.8 91.6341 27.4841 91.8639C27.1683 92.0937 26.7415 92.0851 26.4342 91.8384L12.1529 80.3755C12.0334 80.2819 11.9395 80.1542 11.8883 80.0096L8.3969 70.6827H8.42251Z" fill="#080717"/>
<path d="M100.625 43.4421C87.8716 26.9924 105.824 14.585 117.356 17.4102C118.406 17.6655 119.499 17.3507 120.54 17.3932C121.232 18.7718 121.65 20.244 121.735 21.7843C122.205 30.3794 111.509 51.7307 100.616 43.4421H100.625Z" fill="#080717"/>
<path d="M154.024 96.9928L122.969 92.5166L115.5 64.2382L141.835 57.3281L154.024 96.9928Z" fill="white"/>
<path d="M154.027 97.819C154.027 97.819 153.951 97.819 153.908 97.8105L122.853 93.3343C122.528 93.2833 122.255 93.045 122.17 92.7301L114.701 64.4602C114.581 64.0177 114.846 63.5666 115.29 63.456L141.616 56.546C142.042 56.4353 142.486 56.6821 142.614 57.0991L154.804 96.7638C154.89 97.0361 154.83 97.3255 154.642 97.5382C154.48 97.7254 154.249 97.8276 154.01 97.8276L154.027 97.819ZM123.638 91.7855L152.858 95.9979L141.283 58.333L116.519 64.8346L123.638 91.7855Z" fill="#080717"/>
<path d="M143.861 64.2744C146.55 61.2789 148.607 57.6026 149.751 53.4242C153.575 39.4339 145.577 25.4096 132.072 21.41C109.92 14.8488 101.085 33.8089 100.633 38.0639C100.53 39.0595 100.428 40.0296 100.317 40.9572C99.9499 42.4975 99.728 44.0463 99.6341 45.5781C98.9939 48.8459 98.0122 51.3138 96.1171 52.5137C93.2233 54.3433 100.778 78.3157 118.636 72.1716L143.861 64.2744Z" fill="white"/>
<path d="M113.001 73.9336C108.05 73.9336 101.46 71.8147 96.8587 62.2751C94.8186 58.0541 93.8198 52.9822 95.6722 51.8164C97.1575 50.8803 98.1221 48.923 98.805 45.4765C98.8989 43.9192 99.1294 42.3534 99.4965 40.8216C99.5989 39.9025 99.7013 38.9579 99.8123 37.9793C100.128 34.9923 103.526 27.5461 110.286 23.0444C116.467 18.9341 123.876 18.1171 132.31 20.619C146.455 24.8144 154.47 39.3153 150.552 53.646C149.4 57.8584 147.36 61.6198 144.483 64.828C144.176 65.1684 143.655 65.194 143.313 64.8961C142.972 64.5898 142.946 64.0707 143.245 63.7303C145.951 60.7178 147.872 57.1776 148.956 53.212C152.635 39.7578 145.115 26.1335 131.841 22.2019C123.902 19.8446 116.953 20.5935 111.208 24.423C104.482 28.8992 101.673 36.1581 101.46 38.158C101.357 39.1621 101.246 40.1238 101.144 41.0599C101.144 41.0939 101.135 41.1279 101.127 41.1535C100.777 42.6342 100.555 44.1404 100.461 45.6382C100.461 45.6722 100.461 45.7148 100.444 45.7488C99.6672 49.7144 98.4721 52.0121 96.56 53.2205C95.9539 53.7737 96.4149 58.4967 99.4111 63.526C105.608 73.9166 113.948 72.921 118.37 71.3977C118.806 71.253 119.275 71.4743 119.42 71.9083C119.565 72.3423 119.343 72.8103 118.908 72.955C117.739 73.355 115.605 73.9422 113.009 73.9422L113.001 73.9336Z" fill="#080717"/>
<path d="M102.771 63.9789C102.429 63.9789 102.114 63.7661 101.994 63.4343C101.84 63.0088 102.062 62.5322 102.489 62.379C104.231 61.7578 104.802 59.792 104.811 59.7665C104.931 59.3325 105.391 59.0687 105.827 59.1963C106.262 59.3155 106.527 59.7665 106.407 60.209C106.373 60.3196 105.613 63.0173 103.053 63.9278C102.959 63.9619 102.865 63.9789 102.771 63.9789Z" fill="#080717"/>
<path d="M109.095 41.9433C108.676 41.9433 108.318 41.6284 108.275 41.2029C108.215 40.5817 107.413 39.5265 106.244 38.9137C105.544 38.5478 104.161 38.0628 102.675 38.8712C102.274 39.0925 101.77 38.9478 101.557 38.5478C101.335 38.1479 101.48 37.6458 101.881 37.4245C103.478 36.548 105.305 36.5565 107.012 37.45C108.6 38.2755 109.795 39.7562 109.923 41.0327C109.965 41.4837 109.641 41.8922 109.18 41.9348C109.154 41.9348 109.12 41.9348 109.095 41.9348V41.9433Z" fill="#080717"/>
<path d="M104.624 46.4645C104.334 47.1964 103.668 47.6134 103.139 47.4006C102.609 47.1879 102.421 46.4305 102.72 45.6987C103.019 44.9668 103.676 44.5498 104.206 44.7626C104.735 44.9753 104.923 45.7327 104.624 46.4645Z" fill="#080717"/>
<path d="M117.313 71.6197L119.703 80.6658C123.161 78.0958 125.815 74.4025 127.036 69.9348C127.523 68.1477 127.745 66.3521 127.736 64.582C125.098 67.9945 121.419 70.4454 117.305 71.6112L117.313 71.6197Z" fill="#080717"/>
<path d="M169.523 30.6228C175.241 20.9716 172.029 8.52617 162.348 2.82525C152.667 -2.87567 140.182 0.326708 134.464 9.97797C128.745 19.6292 131.958 32.0746 141.639 37.7756C151.32 43.4765 163.804 40.2741 169.523 30.6228Z" fill="#080717"/>
<path d="M153.802 43.2479C148.817 43.2479 144.037 41.5119 140.178 38.2696C135.85 34.6359 133.204 29.5299 132.726 23.9134C132.248 18.2883 133.989 12.8164 137.643 8.51043C141.288 4.1959 146.41 1.55783 152.044 1.08128C157.686 0.60472 163.175 2.34074 167.495 5.98299C171.822 9.61672 174.469 14.7227 174.947 20.3392C175.937 31.9467 167.273 42.1842 155.629 43.1798C155.014 43.2309 154.408 43.2564 153.802 43.2564V43.2479ZM134.374 23.7772C134.817 28.9598 137.259 33.6657 141.245 37.0186C145.232 40.3715 150.294 41.9799 155.492 41.5374C166.223 40.6268 174.213 31.1808 173.299 20.4839C172.855 15.3013 170.414 10.5954 166.427 7.24245C162.441 3.88955 157.379 2.28117 152.18 2.72369C146.982 3.1662 142.261 5.60004 138.898 9.57417C135.534 13.5483 133.921 18.5947 134.365 23.7772H134.374Z" fill="#080717"/>
<path d="M123.047 40.5312C126.137 33.3744 133.256 28.2429 141.801 28.2344C151.78 28.2344 160.436 35.6805 161.896 45.5265C163.629 57.2191 155.118 67.7714 143.483 68.7586C143.449 68.7586 143.415 68.7586 143.389 68.7586C138.387 69.1586 133.734 66.1545 131.814 61.5337L123.055 40.5227L123.047 40.5312Z" fill="#080717"/>
<path d="M140.578 34.665C144.012 26.1181 139.846 16.4141 131.273 12.9904C122.699 9.5667 112.965 13.7198 109.531 22.2667C106.097 30.8136 110.263 40.5176 118.836 43.9413C127.409 47.365 137.144 43.2119 140.578 34.665Z" fill="#080717"/>
<path d="M127.441 57.976C131.753 57.2659 134.671 53.2057 133.959 48.9071C133.247 44.6086 129.174 41.6995 124.862 42.4096C120.55 43.1197 117.632 47.18 118.344 51.4785C119.057 55.7771 123.13 58.6861 127.441 57.976Z" fill="white"/>
<path d="M136.022 42.4118C136.099 43.3649 136.116 44.301 136.065 45.2286C134.272 45.9264 132.352 46.3944 130.337 46.5646C119.129 47.5178 109.278 39.2291 108.322 28.0556C108.245 27.1025 108.228 26.1664 108.279 25.2388C110.072 24.541 111.993 24.0729 114.007 23.9027C125.215 22.9496 135.066 31.2383 136.022 42.4118Z" fill="#080717"/>
<path d="M36.1406 143.52L57.2168 125.573L84.627 151.724L117.432 99.3114C125.67 86.1466 142.136 80.6832 156.648 86.3083C161.906 88.3507 166.064 92.5035 168.095 97.7626L186.764 146.167L172.355 159.025L144.672 181.092C139.755 185.015 132.678 184.657 128.179 180.258L122.4 174.607L101.35 193.686C90.0988 203.881 72.3347 201.422 64.2934 188.563L36.1406 143.529V143.52Z" fill="#080717"/>
<path d="M122.402 175.425C122.231 175.425 122.052 175.374 121.907 175.263C121.54 174.991 121.472 174.471 121.745 174.106L142.215 146.882C142.488 146.516 143.009 146.44 143.376 146.721C143.743 146.993 143.82 147.512 143.538 147.878L123.068 175.101C122.906 175.314 122.658 175.433 122.402 175.433V175.425Z" fill="white"/>
<path d="M77.5035 163.289C77.3498 163.289 77.1877 163.246 77.0511 163.152C76.6669 162.906 76.5645 162.387 76.8206 162.012L83.9484 151.273C84.2045 150.89 84.7167 150.788 85.0923 151.043C85.4764 151.29 85.5789 151.809 85.3228 152.183L78.1949 162.923C78.0328 163.161 77.7767 163.289 77.5035 163.289Z" fill="white"/>
<path d="M72.282 92.3163L66.2468 83.0064L62.1579 78.7344L59.3495 75.6113C58.3251 74.4795 56.4642 74.8369 55.9349 76.2666C55.3203 77.9345 55.5593 79.7982 56.5752 81.2619L68.9699 99.1072L58.8544 92.2652C58.3507 91.9248 57.7446 91.7886 57.1471 91.8822C55.3203 92.1631 54.4923 94.3161 55.6532 95.7457L63.7798 104.596C66.6736 107.745 70.3272 110.093 74.399 111.412L75.9697 111.923L82.978 113.668L91.9327 128.22L95.2448 133.453L72.282 92.3248V92.3163Z" fill="white"/>
<path d="M95.2484 134.295C94.9582 134.295 94.685 134.15 94.5228 133.895L91.2192 128.661L82.4439 114.399L75.777 112.739L74.1466 112.212C69.9467 110.85 66.1395 108.408 63.1518 105.157L55.0252 96.3067C54.2484 95.3536 54.0521 94.1537 54.4789 93.0559C54.9057 91.9581 55.8532 91.1922 57.0227 91.0135C57.8337 90.8859 58.6617 91.0731 59.3446 91.5326L65.6444 95.7961L55.8788 81.7377C54.7094 80.0442 54.4277 77.8827 55.1362 75.9595C55.4862 75.0064 56.2971 74.3171 57.3044 74.1213C58.3117 73.9341 59.319 74.266 60.0019 75.0234L62.8103 78.1465L66.8822 82.393C66.8822 82.393 66.9505 82.4781 66.9846 82.5206L73.0198 91.8305C73.2759 92.2304 73.1649 92.758 72.7637 93.0219C72.3625 93.2771 71.8332 93.1665 71.5686 92.7666L65.5761 83.5248L61.547 79.3124L58.7214 76.1722C58.4397 75.8574 58.0471 75.7382 57.6373 75.8063C57.2276 75.8829 56.9117 76.1552 56.7666 76.5467C56.2459 77.9508 56.4508 79.5251 57.3044 80.7591L69.6992 98.6044C69.9382 98.9448 69.8955 99.4043 69.6053 99.6936C69.315 99.983 68.8541 100.034 68.5126 99.7957L58.3971 92.9538C58.0727 92.7325 57.6885 92.6474 57.3044 92.707C56.7581 92.7921 56.3057 93.1495 56.1093 93.6686C55.913 94.1877 55.9983 94.7494 56.3483 95.1834L64.4408 103.991C67.2236 107.021 70.7747 109.301 74.6929 110.569L76.2636 111.08L83.2122 112.807C83.4341 112.858 83.6219 113.003 83.7414 113.19L92.696 127.742L95.9996 132.967C96.2557 133.367 96.1362 133.895 95.7264 134.15C95.5813 134.235 95.4277 134.286 95.2655 134.286L95.2484 134.295Z" fill="#080717"/>
<path d="M68.3914 86.0115L77.696 86.4115C80.2825 86.5221 82.6471 87.8837 84.0385 90.0537L93.7785 105.218L106.327 116.571L68.3829 86.02L68.3914 86.0115Z" fill="white"/>
<path d="M106.336 117.396C106.14 117.396 105.935 117.328 105.772 117.183L93.2241 105.831C93.1729 105.78 93.1216 105.729 93.079 105.661L83.339 90.4962C82.0927 88.556 79.9757 87.3391 77.6624 87.237L68.3578 86.837C67.8968 86.82 67.5383 86.4285 67.5553 85.969C67.5724 85.5094 67.9565 85.1435 68.426 85.169L77.7306 85.569C80.5818 85.6967 83.2024 87.1944 84.739 89.5942L94.4192 104.665L106.891 115.941C107.232 116.247 107.258 116.775 106.951 117.124C106.788 117.302 106.558 117.396 106.327 117.396H106.336Z" fill="#080717"/>
<path d="M76.5727 92.5183C76.291 92.5183 76.0179 92.3737 75.8557 92.1184L72.646 86.8763C72.407 86.4848 72.5265 85.9657 72.9277 85.7274C73.3204 85.4891 73.8326 85.6083 74.0801 86.0083L77.2898 91.2504C77.5288 91.6418 77.4093 92.1609 77.0081 92.3992C76.8715 92.4843 76.7178 92.5183 76.5727 92.5183Z" fill="#080717"/>
<path d="M80.7979 92.5198C80.5076 92.5198 80.2345 92.3751 80.0723 92.1113L76.9736 86.8437C76.7431 86.4437 76.8711 85.9331 77.2723 85.7033C77.6736 85.465 78.1857 85.6012 78.4162 86.0012L81.5149 91.2688C81.7454 91.6688 81.6173 92.1794 81.2161 92.4091C81.0795 92.4857 80.9344 92.5198 80.7979 92.5198Z" fill="#080717"/>
<path d="M70.2697 28.8047H37.0549C35.0147 28.8047 33.3672 30.4556 33.3672 32.481V56.3938C33.3672 58.4277 35.0232 60.0701 37.0549 60.0701H40.7426V67.4312L49.0484 60.0701H70.2697C72.3099 60.0701 73.9574 58.4192 73.9574 56.3938V32.481C73.9574 30.4471 72.3014 28.8047 70.2697 28.8047Z" fill="white"/>
<path d="M40.7454 68.2986C40.6259 68.2986 40.5064 68.2731 40.3954 68.222C40.0881 68.0859 39.8832 67.7795 39.8832 67.4391V60.9376H37.0577C34.548 60.9376 32.5078 58.9037 32.5078 56.4018V32.4889C32.5078 29.987 34.548 27.9531 37.0577 27.9531H70.2725C72.7822 27.9531 74.8224 29.987 74.8224 32.4889V56.4018C74.8224 58.9037 72.7822 60.9376 70.2725 60.9376H49.3756L41.3173 68.0774C41.1551 68.222 40.9502 68.2986 40.7454 68.2986ZM37.0577 29.6636C35.4955 29.6636 34.2321 30.9316 34.2321 32.4804V56.3933C34.2321 57.9506 35.5041 59.21 37.0577 59.21H40.7454C41.2234 59.21 41.6075 59.593 41.6075 60.0695V65.5159L48.4793 59.4313C48.6329 59.2951 48.8378 59.21 49.0512 59.21H70.2725C71.8347 59.21 73.0981 57.9421 73.0981 56.3933V32.4804C73.0981 30.9231 71.8262 29.6636 70.2725 29.6636H37.0577Z" fill="#080717"/>
<path d="M44.3821 43.5195H40.7969V54.5569H44.3821V43.5195Z" fill="#FFB000"/>
<path d="M51.7649 49.043H48.1797V54.5659H51.7649V49.043Z" fill="#FFB000"/>
<path d="M59.1478 34.3281H55.5625V54.5647H59.1478V34.3281Z" fill="#FFB000"/>
<path d="M66.5228 39.8438H62.9375V54.5574H66.5228V39.8438Z" fill="#FFB000"/>
</g>
<defs>
<clipPath id="clip0_0_673">
<rect width="205" height="200" fill="white"/>
</clipPath>
</defs>
</svg>
