<svg width="251" height="200" viewBox="0 0 251 200" fill="none" xmlns="http://www.w3.org/2000/svg">
<g clip-path="url(#clip0_0_444)">
<path d="M145.486 198.385L144.721 190.429C139.924 185.66 138.231 178.626 140.337 172.216L142.812 164.662L125.287 143.441C120.113 137.177 119.82 128.246 124.556 121.657L144.334 94.1719L163.011 103.641L149.671 133.955L208.291 172.49C215.476 177.216 220.745 184.309 223.177 192.522L225.129 199.129L145.477 198.368L145.486 198.385Z" fill="white"/>
<path d="M225.142 200C224.772 200 224.428 199.761 224.317 199.385L222.365 192.779C219.993 184.771 214.836 177.823 207.831 173.216L149.212 134.681C148.859 134.45 148.73 134.006 148.902 133.63L161.915 104.051L144.622 95.2742L125.274 122.161C120.762 128.425 121.054 136.954 125.97 142.903L143.496 164.123C143.685 164.345 143.737 164.653 143.651 164.926L141.175 172.481C139.164 178.617 140.763 185.258 145.352 189.822C145.49 189.958 145.585 190.146 145.602 190.343L146.367 198.3C146.41 198.77 146.066 199.188 145.593 199.231C145.112 199.274 144.699 198.932 144.656 198.462L143.926 190.804C139.044 185.788 137.368 178.592 139.551 171.943L141.88 164.832L124.655 143.979C119.249 137.433 118.931 128.049 123.89 121.161L143.668 93.676C143.917 93.3342 144.381 93.2145 144.759 93.4111L163.437 102.889C163.841 103.094 164.013 103.581 163.832 103.991L150.785 133.647L208.802 171.789C216.143 176.618 221.557 183.899 224.042 192.292L225.993 198.898C226.13 199.351 225.864 199.829 225.408 199.958C225.331 199.983 225.245 199.992 225.167 199.992L225.142 200Z" fill="#1D0532"/>
<path d="M196.967 145.151C193.649 150.1 194.998 156.791 199.983 160.09C204.96 163.389 211.69 162.047 215.008 157.09C218.326 152.142 216.976 145.45 211.991 142.152C207.014 138.853 200.284 140.194 196.967 145.151Z" fill="#1D0532"/>
<path d="M201.137 151.981C215.067 149.203 224.095 135.723 221.302 121.872C218.508 108.021 204.95 99.0442 191.02 101.822C177.09 104.6 168.062 118.08 170.855 131.931C173.649 145.782 187.206 154.759 201.137 151.981Z" fill="#1D0532"/>
<path d="M185.261 137.083C181.307 142.979 182.914 150.945 188.854 154.876C194.784 158.807 202.795 157.209 206.749 151.304C210.703 145.407 209.095 137.441 203.156 133.51C197.225 129.579 189.215 131.177 185.261 137.083Z" fill="#1D0532"/>
<path d="M167.339 125.223C163.385 131.12 164.992 139.085 170.932 143.016C176.862 146.948 184.873 145.35 188.827 139.444C192.781 133.547 191.173 125.582 185.234 121.651C179.303 117.72 171.293 119.318 167.339 125.223Z" fill="#1D0532"/>
<path d="M204.826 135.163C201.508 140.111 202.858 146.803 207.843 150.102C212.819 153.401 219.55 152.059 222.867 147.102C226.185 142.154 224.836 135.462 219.85 132.163C214.874 128.864 208.144 130.206 204.826 135.163Z" fill="#1D0532"/>
<path d="M179.697 133.725C176.379 138.673 169.658 140.015 164.673 136.725C159.696 133.426 158.347 126.743 161.656 121.786C164.974 116.838 171.695 115.496 176.68 118.786C181.657 122.085 183.006 128.768 179.697 133.725Z" fill="#1D0532"/>
<path d="M185.924 122.651C182.606 127.599 175.885 128.941 170.899 125.651C165.923 122.352 164.573 115.669 167.882 110.712C171.2 105.763 177.922 104.422 182.907 107.712C187.883 111.011 189.233 117.694 185.924 122.651Z" fill="#1D0532"/>
<path d="M168.688 146.473C168.885 146.089 169.109 145.704 169.358 145.337L187.915 117.621L207.469 130.569L188.912 158.284C188.663 158.652 188.396 159.002 188.113 159.335L195.556 164.267C188.5 168.429 179.38 168.489 172.091 163.668C164.803 158.848 161.339 150.447 162.491 142.371L168.688 146.473Z" fill="white"/>
<path d="M184.316 168.174C179.873 168.174 175.438 166.901 171.621 164.38C164.341 159.56 160.422 150.877 161.642 142.253C161.685 141.963 161.874 141.715 162.141 141.595C162.407 141.476 162.725 141.501 162.966 141.664L168.39 145.253C168.475 145.116 168.553 144.988 168.639 144.869L187.196 117.153C187.325 116.965 187.522 116.837 187.746 116.786C187.969 116.743 188.201 116.786 188.391 116.914L207.945 129.861C208.134 129.99 208.263 130.186 208.314 130.408C208.357 130.631 208.314 130.861 208.185 131.049L189.628 158.765C189.542 158.893 189.456 159.013 189.362 159.141L196.032 163.559C196.281 163.722 196.418 163.995 196.418 164.294C196.418 164.585 196.255 164.858 195.997 165.004C192.413 167.123 188.356 168.174 184.308 168.174H184.316ZM163.198 143.869C162.648 151.381 166.224 158.756 172.575 162.961C178.927 167.166 187.153 167.61 193.909 164.2L187.643 160.055C187.436 159.919 187.308 159.705 187.265 159.466C187.23 159.226 187.299 158.979 187.454 158.791C187.746 158.449 187.987 158.132 188.193 157.816L206.277 130.819L188.15 118.82L170.066 145.817C169.851 146.133 169.653 146.475 169.447 146.877C169.335 147.091 169.137 147.253 168.897 147.313C168.656 147.373 168.407 147.33 168.2 147.193L163.181 143.869H163.198Z" fill="#1D0532"/>
<path d="M176.312 114.094C177.06 114.59 177.627 115.257 178.005 116C184.71 108.121 196.434 106.317 205.287 112.18C213.951 117.915 216.864 129.016 212.549 138.101C212.601 138.135 212.653 138.161 212.704 138.195C215.008 139.725 215.635 142.818 214.097 145.109C212.558 147.399 209.447 148.023 207.143 146.493C206.825 146.28 206.541 146.032 206.284 145.767C199.45 150.895 189.85 151.459 182.32 146.468C174.49 141.28 171.353 131.708 174.017 123.205C172.908 123.316 171.748 123.059 170.751 122.393C168.448 120.863 167.82 117.769 169.359 115.479C170.897 113.188 174.009 112.565 176.312 114.094Z" fill="white"/>
<path d="M193.807 150.766C189.647 150.766 185.479 149.578 181.851 147.177C174.253 142.143 170.678 132.768 172.895 124.042C171.967 123.939 171.064 123.615 170.282 123.102C168.976 122.239 168.09 120.922 167.781 119.393C167.472 117.863 167.781 116.307 168.649 115.008C169.517 113.709 170.841 112.829 172.379 112.521C173.918 112.214 175.482 112.521 176.789 113.385C177.296 113.718 177.743 114.128 178.121 114.598C185.281 107.026 196.962 105.642 205.763 111.47C214.401 117.188 217.702 128.4 213.628 137.81C215.957 139.69 216.507 143.057 214.814 145.578C213.018 148.262 209.365 148.988 206.666 147.202C206.511 147.1 206.365 146.989 206.219 146.869C202.506 149.467 198.156 150.775 193.799 150.775L193.807 150.766ZM174.03 122.341C174.288 122.341 174.528 122.452 174.7 122.657C174.881 122.88 174.941 123.179 174.855 123.452C172.251 131.759 175.525 140.929 182.814 145.749C189.828 150.39 199.059 150.125 205.78 145.074C206.133 144.809 206.623 144.852 206.924 145.168C207.147 145.399 207.388 145.604 207.637 145.766C209.545 147.031 212.124 146.51 213.396 144.621C214.668 142.724 214.144 140.152 212.244 138.895C212.244 138.895 212.124 138.827 212.115 138.818C211.737 138.588 211.599 138.118 211.788 137.724C215.957 128.947 212.966 118.273 204.826 112.88C196.429 107.317 185.186 108.898 178.68 116.547C178.491 116.769 178.216 116.872 177.923 116.846C177.64 116.812 177.39 116.641 177.253 116.384C176.926 115.743 176.445 115.196 175.852 114.803C174.932 114.188 173.823 113.974 172.732 114.188C171.64 114.402 170.703 115.034 170.093 115.949C169.474 116.863 169.259 117.965 169.474 119.051C169.689 120.136 170.325 121.068 171.245 121.675C172.053 122.213 172.99 122.435 173.952 122.35C173.978 122.35 174.013 122.35 174.038 122.35L174.03 122.341Z" fill="#1D0532"/>
<path d="M210.339 105.6C218.255 110.847 222.304 119.693 221.754 128.504C218.161 128.82 214.448 127.974 211.216 125.829C203.764 120.898 201.675 110.958 206.446 103.48C207.778 104.07 209.084 104.762 210.331 105.591L210.339 105.6Z" fill="#1D0532"/>
<path d="M194.009 135.426C193.709 135.426 193.399 135.392 193.09 135.315C191.405 134.913 190.262 133.546 190.185 131.828L190.056 128.999C190.038 128.649 190.245 128.324 190.563 128.179C190.889 128.033 191.268 128.11 191.517 128.358C192.273 129.11 195.557 130.452 197.448 131.127C197.688 131.213 197.877 131.401 197.963 131.631C198.049 131.871 198.032 132.127 197.912 132.349L197.258 133.503C196.562 134.725 195.35 135.426 194.009 135.426ZM191.852 130.597L191.904 131.751C191.955 132.888 192.755 133.477 193.485 133.648C194.216 133.819 195.196 133.648 195.763 132.657L195.926 132.375C194.86 131.973 193.167 131.289 191.861 130.589L191.852 130.597Z" fill="#1D0532"/>
<path d="M205.074 134.424C203.475 134.424 201.902 133.954 200.536 133.057C198.713 131.852 197.467 130.006 197.037 127.869C196.607 125.733 197.037 123.554 198.258 121.742C200.768 117.99 205.882 116.973 209.646 119.468C211.469 120.673 212.715 122.519 213.145 124.656C213.574 126.793 213.145 128.972 211.924 130.784C210.712 132.595 208.856 133.835 206.707 134.262C206.165 134.373 205.615 134.424 205.074 134.424ZM199.685 122.682C198.722 124.118 198.387 125.835 198.722 127.528C199.066 129.22 200.046 130.673 201.49 131.63C202.934 132.587 204.67 132.92 206.363 132.587C208.065 132.245 209.526 131.271 210.489 129.835C211.451 128.399 211.795 126.681 211.451 124.989C211.108 123.297 210.128 121.844 208.684 120.887C205.701 118.913 201.661 119.716 199.676 122.682H199.685Z" fill="#FFB000"/>
<path d="M188.51 123.46C186.902 123.46 185.338 122.99 183.971 122.093C180.207 119.597 179.175 114.521 181.685 110.769C184.195 107.017 189.3 106.009 193.074 108.496C194.896 109.701 196.142 111.547 196.572 113.683C197.002 115.82 196.572 117.999 195.351 119.811C194.139 121.623 192.283 122.862 190.134 123.289C189.592 123.401 189.042 123.452 188.501 123.452L188.51 123.46ZM183.12 111.718C181.135 114.683 181.943 118.7 184.925 120.666C186.369 121.623 188.097 121.956 189.799 121.623C191.501 121.281 192.962 120.307 193.924 118.871C194.887 117.435 195.231 115.717 194.887 114.025C194.543 112.333 193.563 110.88 192.119 109.923C189.137 107.949 185.097 108.752 183.112 111.718H183.12Z" fill="#FFB000"/>
<path d="M212.179 138.441C211.775 138.441 211.422 138.159 211.336 137.758L209.978 131.006C209.884 130.545 210.185 130.092 210.649 129.998C211.113 129.904 211.568 130.203 211.663 130.664L213.021 137.416C213.116 137.877 212.815 138.33 212.351 138.424C212.29 138.433 212.239 138.441 212.179 138.441Z" fill="#FFB000"/>
<path d="M198.693 122.883C198.53 122.883 198.366 122.84 198.22 122.737L194.421 120.216C194.026 119.951 193.923 119.421 194.181 119.028C194.438 118.635 194.98 118.533 195.375 118.789L199.174 121.31C199.57 121.575 199.673 122.105 199.415 122.498C199.252 122.746 198.977 122.883 198.702 122.883H198.693Z" fill="#FFB000"/>
<path d="M203.815 123.752C203.162 124.718 203.308 125.949 204.133 126.496C204.958 127.043 206.153 126.701 206.806 125.726C207.46 124.752 207.313 123.53 206.488 122.983C205.663 122.436 204.468 122.778 203.815 123.752Z" fill="#1D0532"/>
<path d="M189.143 114.045C188.49 115.011 188.636 116.242 189.461 116.789C190.287 117.336 191.481 116.994 192.134 116.019C192.788 115.045 192.642 113.823 191.816 113.276C190.991 112.729 189.797 113.071 189.143 114.045Z" fill="#1D0532"/>
<path d="M46.512 106.858L40.0001 116.418L95.217 153.604L101.729 144.044L46.512 106.858Z" fill="#1D0532"/>
<path d="M63.1988 86.6943L48.5314 108.227L99.7061 142.69L114.374 121.158L63.1988 86.6943Z" fill="#1D0532"/>
<path d="M63.1988 86.6943L48.5314 108.227L99.7061 142.69L114.374 121.158L63.1988 86.6943Z" fill="#1D0532"/>
<path d="M106.294 116.23C107.643 114.247 111.322 106.427 109.947 105.496L79.4766 84.9761C78.1013 84.0445 72.1621 90.3517 70.8126 92.3344L106.294 116.23Z" fill="#FFB000"/>
<path d="M110.69 79.8323C129.453 81.1569 148.449 72.7217 159.82 56.0223C163.001 51.3561 166.963 44.0062 168.527 38.887L119.973 6.17188C115.77 9.51347 110.372 15.8975 107.192 20.5638C95.8119 37.2632 94.9867 57.9367 103.178 74.7643L91.0157 92.6089L110.699 79.8237L110.69 79.8323Z" fill="#FFB000"/>
<path d="M111.868 41.7687L108.602 40.7175C110.183 35.8718 112.452 31.2654 115.349 27.0179C117.274 24.1976 119.475 21.5397 121.898 19.1211L124.331 21.5311C122.062 23.7959 119.999 26.2829 118.194 28.9322C115.478 32.9148 113.355 37.2307 111.876 41.7687H111.868Z" fill="white"/>
<path d="M70.0844 106.955L68.1564 109.785L90.9576 125.141L92.8857 122.31L70.0844 106.955Z" fill="white"/>
<path d="M113.147 77.5203L104.422 71.6445L87.2385 96.8705L95.9634 102.746L113.147 77.5203Z" fill="#FFB000"/>
<path d="M144.904 87.274C141.646 87.274 138.354 86.6415 135.217 85.334L117.992 78.1295L119.66 74.1896L136.884 81.3941C146.013 85.2058 156.662 82.0607 162.206 73.9161L175.202 54.8408L155.046 41.2608L157.453 37.7227L181.167 53.6957L165.764 76.3091C160.977 83.3341 153.052 87.274 144.904 87.274Z" fill="#FFB000"/>
<path d="M102.055 67.4045L88.9382 54.1663C80.5579 45.714 79.3374 32.4417 86.0331 22.6135L101.436 0L125.15 15.973L122.743 19.5112L102.587 5.93112L89.5915 25.0064C84.039 33.151 85.0532 44.1586 91.9981 51.1666L105.114 64.4048L102.055 67.4045Z" fill="#FFB000"/>
<path d="M159.93 111.805C159.973 111.685 165.577 98.3446 169.273 94.7295C169.299 94.7039 169.324 94.6612 169.333 94.627C170.657 94.1655 172.101 93.3108 173.321 91.7383C173.734 91.2085 174.232 90.576 174.791 89.8667C178.71 84.9013 185.277 76.5943 185.243 73.5946C185.217 71.0649 183.91 67.8686 182.338 66.467C181.71 65.9115 181.083 65.6551 180.464 65.7235C179.759 65.8004 178.332 66.655 176.699 67.9284C176.347 64.8005 169.161 59.2967 165.955 58.6215C163.093 58.0147 160.678 58.6557 159.139 60.4248C157.815 61.946 157.205 63.698 157.179 63.7749C157.136 63.886 157.179 64.0142 157.274 64.0826C157.291 64.0997 157.317 64.1082 157.343 64.1168C157.343 64.1168 157.36 64.1168 157.369 64.1168C155.847 64.4586 154.979 65.4243 154.403 66.0653C153.174 67.4327 153.776 69.7829 153.802 69.8599C153.802 69.877 153.819 69.894 153.827 69.9111C152.727 70.0137 151.73 70.3214 150.991 70.8256C149.272 71.9879 149.736 75.1586 149.848 75.7824C149.59 76.2439 148.541 78.3378 149.478 80.4914C150.14 82.0127 150.75 82.9357 151.584 83.7988L141.089 98.3446C141.046 98.4044 141.141 98.319 141.158 98.3959C141.175 98.4643 141.253 98.4643 141.304 98.507C141.304 98.507 141.313 98.507 141.321 98.5155L159.749 111.668C159.818 111.711 159.835 111.814 159.913 111.788C159.99 111.762 159.913 111.89 159.947 111.814L159.93 111.805Z" fill="white"/>
<path d="M141.294 99.3547C141.122 99.3547 140.942 99.3034 140.796 99.1923C140.409 98.9188 140.323 98.3804 140.598 97.9958L151.093 83.4501C151.368 83.0655 151.909 82.98 152.296 83.2535C152.683 83.527 152.769 84.0654 152.494 84.45L141.999 98.9957C141.827 99.2265 141.569 99.3547 141.303 99.3547H141.294Z" fill="#1D0532"/>
<path d="M176.446 68.9193C175.99 68.9193 175.612 68.5689 175.586 68.1159C175.449 65.74 168.744 60.3644 165.719 59.7235C162.599 59.0568 160.88 60.1422 159.994 61.1592C158.825 62.501 158.25 64.1248 158.25 64.1419C158.095 64.5863 157.605 64.8256 157.158 64.6718C156.711 64.5179 156.47 64.0308 156.625 63.5864C156.651 63.5095 157.304 61.6464 158.697 60.0397C160.381 58.0997 163.003 57.3989 166.08 58.0484C169.208 58.715 177.099 64.4325 177.305 68.0134C177.331 68.4834 176.97 68.8851 176.497 68.9193C176.48 68.9193 176.463 68.9193 176.446 68.9193Z" fill="#1D0532"/>
<path d="M171.955 73.3108C171.715 73.3108 171.474 73.2082 171.302 73.0116C168.354 69.6102 165.028 67.166 161.435 65.7473C157.576 64.2261 156.235 65.7217 155.255 66.8156C154.447 67.7215 154.782 69.0718 154.791 69.0889C154.911 69.5419 154.636 70.0119 154.181 70.1316C153.716 70.2512 153.252 69.9863 153.132 69.5333C153.106 69.4393 152.539 67.2856 153.974 65.6875C154.989 64.5594 157.086 62.2006 162.071 64.1663C165.93 65.6875 169.48 68.2941 172.609 71.9092C172.918 72.2681 172.875 72.8065 172.523 73.1142C172.359 73.2509 172.162 73.3193 171.964 73.3193L171.955 73.3108Z" fill="#1D0532"/>
<path d="M152.963 85.5841C152.766 85.5841 152.568 85.5157 152.405 85.379C150.832 84.0287 149.912 82.9946 148.932 80.7298C147.858 78.2599 148.391 71.8844 150.66 70.3461C152.817 68.8761 156.152 69.1154 158.499 69.9957C162.1 71.3546 166.948 73.6706 169.604 77.0464C169.896 77.4139 169.827 77.9523 169.458 78.2429C169.088 78.5334 168.547 78.4651 168.254 78.0976C165.848 75.038 161.292 72.8758 157.897 71.5938C155.654 70.7478 153.015 70.8161 151.631 71.7562C150.333 72.6365 149.611 77.9865 150.514 80.0547C151.373 82.0374 152.113 82.8664 153.531 84.0885C153.892 84.3962 153.926 84.9346 153.617 85.2935C153.445 85.4901 153.204 85.5927 152.963 85.5927V85.5841Z" fill="#1D0532"/>
<path d="M166.417 95.7209C165.661 95.7209 165.162 95.6268 165.102 95.6183C164.638 95.5243 164.329 95.0799 164.423 94.6184C164.518 94.1569 164.965 93.8492 165.429 93.9432C165.609 93.9774 169.632 94.6697 172.443 91.0546C172.855 90.5247 173.354 89.8923 173.921 89.1744C177.247 84.9696 184.158 76.2097 184.132 73.6116C184.106 71.3896 182.946 68.5095 181.605 67.313C181.339 67.0823 180.96 66.8088 180.599 66.8515C179.714 66.9455 175.262 70.0649 172.039 74.0389C170.277 76.2012 169.383 78.0557 169.512 79.2607C169.512 79.312 169.555 79.5855 169.641 79.6197C170.844 80.0641 175.76 76.4832 179.611 72.8681C179.955 72.5434 180.496 72.5604 180.823 72.9023C181.15 73.2441 181.132 73.7826 180.789 74.1073C178.743 76.0388 171.832 82.2434 169.047 81.2264C168.635 81.0725 167.93 80.6452 167.801 79.4487C167.612 77.7395 168.592 75.5602 170.698 72.9707C173.689 69.2872 178.597 65.3474 180.419 65.1594C180.96 65.1081 181.803 65.2106 182.748 66.0482C184.459 67.5694 185.825 70.8854 185.851 73.6031C185.885 76.5601 180.642 83.4399 175.27 90.2427C174.712 90.952 174.213 91.5845 173.801 92.1143C171.368 95.2508 168.188 95.7465 166.417 95.7465V95.7209Z" fill="#1D0532"/>
<path d="M159.731 112.506C159.619 112.506 159.508 112.489 159.404 112.437C158.966 112.258 158.76 111.754 158.94 111.318C159.172 110.762 164.639 97.6951 168.498 93.9176C168.833 93.5843 169.383 93.5929 169.71 93.9262C170.045 94.2595 170.037 94.8064 169.701 95.1312C166.091 98.6608 160.582 111.831 160.53 111.967C160.393 112.301 160.075 112.497 159.74 112.497L159.731 112.506Z" fill="#1D0532"/>
<path d="M144.943 87.2811C141.651 87.2811 138.342 86.6402 135.222 85.3326L117.997 78.1281C116.906 77.6666 116.39 76.4188 116.845 75.3334C117.31 74.2481 118.564 73.7353 119.656 74.1882L136.881 81.3928C143.723 84.2472 151.639 83.2558 157.544 78.8032C158.489 78.0939 159.839 78.2734 160.552 79.2135C161.265 80.1536 161.085 81.4953 160.139 82.2047C155.713 85.5463 150.341 87.2641 144.935 87.2641L144.943 87.2811Z" fill="#FFB000"/>
<path d="M175.195 62.4805L171.636 60.079L175.203 54.8401L155.039 41.2686L157.454 37.7305L181.168 53.7035L175.195 62.4805Z" fill="#FFB000"/>
<path d="M145.87 141.263C145.724 141.263 145.569 141.229 145.432 141.143C145.019 140.904 144.89 140.382 145.122 139.972L148.93 133.528C149.171 133.118 149.695 132.981 150.108 133.229C150.52 133.469 150.649 133.99 150.417 134.4L146.609 140.844C146.446 141.117 146.162 141.263 145.87 141.263Z" fill="#1D0532"/>
<path d="M138.25 103.273C138.25 103.273 148.917 101.761 157.306 114.64L138.25 103.273Z" fill="white"/>
<path d="M157.306 115.494C157.023 115.494 156.748 115.358 156.584 115.101C148.625 102.872 138.792 104.06 138.371 104.119C137.898 104.188 137.469 103.854 137.4 103.393C137.331 102.923 137.658 102.496 138.13 102.427C138.586 102.359 149.442 100.983 158.028 114.178C158.286 114.571 158.174 115.101 157.77 115.358C157.624 115.452 157.461 115.494 157.306 115.494Z" fill="#1D0532"/>
<path d="M168.519 84.5481C167.454 84.5481 166.388 84.0695 165.614 83.1978C161.703 78.8135 155.842 78.7366 155.781 78.7366C155.309 78.7366 154.922 78.352 154.922 77.882C154.922 77.4119 155.309 77.0273 155.781 77.0273C156.056 77.0273 162.46 77.0872 166.895 82.0611C167.479 82.7106 168.322 82.9841 169.052 82.7448C170.015 82.4286 170.273 81.9158 169.972 80.8903C169.835 80.4373 170.101 79.9587 170.557 79.8305C171.012 79.6938 171.493 79.9587 171.622 80.4117C172.19 82.326 171.442 83.7618 169.594 84.3686C169.241 84.4797 168.88 84.5395 168.519 84.5395V84.5481Z" fill="#1D0532"/>
</g>
<defs>
<clipPath id="clip0_0_444">
<rect width="186" height="200" fill="white" transform="translate(40)"/>
</clipPath>
</defs>
</svg>
