<svg width="20" height="20" viewBox="0 0 20 20" fill="none" xmlns="http://www.w3.org/2000/svg">
<g clip-path="url(#clip0_0_137)">
<path d="M5.83594 19.3346C5.3776 19.3346 4.98524 19.1714 4.65885 18.8451C4.33247 18.5187 4.16927 18.1263 4.16927 17.668C4.16927 17.2096 4.33247 16.8173 4.65885 16.4909C4.98524 16.1645 5.3776 16.0013 5.83594 16.0013C6.29427 16.0013 6.68663 16.1645 7.01302 16.4909C7.33941 16.8173 7.5026 17.2096 7.5026 17.668C7.5026 18.1263 7.33941 18.5187 7.01302 18.8451C6.68663 19.1714 6.29427 19.3346 5.83594 19.3346ZM14.1693 19.3346C13.7109 19.3346 13.3186 19.1714 12.9922 18.8451C12.6658 18.5187 12.5026 18.1263 12.5026 17.668C12.5026 17.2096 12.6658 16.8173 12.9922 16.4909C13.3186 16.1645 13.7109 16.0013 14.1693 16.0013C14.6276 16.0013 15.02 16.1645 15.3464 16.4909C15.6727 16.8173 15.8359 17.2096 15.8359 17.668C15.8359 18.1263 15.6727 18.5187 15.3464 18.8451C15.02 19.1714 14.6276 19.3346 14.1693 19.3346ZM5.1276 6.0013L7.1276 10.168H12.9609L15.2526 6.0013H5.1276ZM4.33594 4.33464H16.6276C16.947 4.33464 17.1901 4.477 17.3568 4.76172C17.5234 5.04644 17.5304 5.33464 17.3776 5.6263L14.4193 10.9596C14.2665 11.2374 14.0616 11.4527 13.8047 11.6055C13.5477 11.7582 13.2665 11.8346 12.9609 11.8346H6.7526L5.83594 13.5013H15.8359V15.168H5.83594C5.21094 15.168 4.73872 14.8937 4.41927 14.3451C4.09983 13.7964 4.08594 13.2513 4.3776 12.7096L5.5026 10.668L2.5026 4.33464H0.835938V2.66797H3.54427L4.33594 4.33464Z" fill="#1D1D1F"/>
</g>
<defs>
<clipPath id="clip0_0_137">
<rect width="20" height="20" fill="white"/>
</clipPath>
</defs>
</svg>
