<svg width="16" height="18" viewBox="0 0 16 18" fill="none" xmlns="http://www.w3.org/2000/svg">
<path d="M2.16667 17.4987C1.70833 17.4987 1.31597 17.3355 0.989583 17.0091C0.663194 16.6827 0.5 16.2904 0.5 15.832V4.16536C0.5 3.70703 0.663194 3.31467 0.989583 2.98828C1.31597 2.66189 1.70833 2.4987 2.16667 2.4987H5.66667C5.84722 1.9987 6.14931 1.59592 6.57292 1.29036C6.99653 0.984809 7.47222 0.832031 8 0.832031C8.52778 0.832031 9.00347 0.984809 9.42708 1.29036C9.85069 1.59592 10.1528 1.9987 10.3333 2.4987H13.8333C14.2917 2.4987 14.684 2.66189 15.0104 2.98828C15.3368 3.31467 15.5 3.70703 15.5 4.16536V15.832C15.5 16.2904 15.3368 16.6827 15.0104 17.0091C14.684 17.3355 14.2917 17.4987 13.8333 17.4987H2.16667ZM2.16667 15.832H13.8333V4.16536H2.16667V15.832ZM3.83333 14.1654H9.66667V12.4987H3.83333V14.1654ZM3.83333 10.832H12.1667V9.16536H3.83333V10.832ZM3.83333 7.4987H12.1667V5.83203H3.83333V7.4987ZM8 3.54036C8.18056 3.54036 8.32986 3.48134 8.44792 3.36328C8.56597 3.24523 8.625 3.09592 8.625 2.91536C8.625 2.73481 8.56597 2.5855 8.44792 2.46745C8.32986 2.34939 8.18056 2.29036 8 2.29036C7.81944 2.29036 7.67014 2.34939 7.55208 2.46745C7.43403 2.5855 7.375 2.73481 7.375 2.91536C7.375 3.09592 7.43403 3.24523 7.55208 3.36328C7.67014 3.48134 7.81944 3.54036 8 3.54036Z" fill="#1D1D1F"/>
</svg>
